<?xml version="1.0" encoding="UTF-8" standalone="no"?>
<!DOCTYPE svg PUBLIC "-//W3C//DTD SVG 1.1//EN"
 "http://www.w3.org/Graphics/SVG/1.1/DTD/svg11.dtd">
<!-- Generated by graphviz version 2.43.0 (0)
 -->
<!-- Title: G Pages: 1 -->
<svg width="652pt" height="827pt"
 viewBox="0.00 0.00 651.50 826.60" xmlns="http://www.w3.org/2000/svg" xmlns:xlink="http://www.w3.org/1999/xlink">
<g id="graph0" class="graph" transform="scale(1 1) rotate(0) translate(4 822.6)">
<title>G</title>
<polygon fill="white" stroke="transparent" points="-4,4 -4,-822.6 647.5,-822.6 647.5,4 -4,4"/>
<g id="clust1" class="cluster">
<title>cluster_inputs</title>
<polygon fill="none" stroke="black" points="8,-735.6 8,-810.6 176,-810.6 176,-735.6 8,-735.6"/>
<text text-anchor="middle" x="92" y="-795.4" font-family="Times,serif" font-size="14.00">Upstream Frontends</text>
</g>
<g id="clust2" class="cluster">
<title>cluster_heir_inputs</title>
<polygon fill="none" stroke="black" points="184,-735.6 184,-810.6 309,-810.6 309,-735.6 184,-735.6"/>
<text text-anchor="middle" x="246.5" y="-795.4" font-family="Times,serif" font-size="14.00">HEIR Frontend</text>
</g>
<g id="clust3" class="cluster">
<title>cluster_mlir</title>
<polygon fill="none" stroke="black" points="27,-652.6 27,-727.6 401,-727.6 401,-652.6 27,-652.6"/>
<text text-anchor="middle" x="214" y="-712.4" font-family="Times,serif" font-size="14.00">Upstream MLIR</text>
</g>
<g id="clust6" class="cluster">
<title>cluster_fhe</title>
<polygon fill="none" stroke="black" points="158,-219 158,-397 424,-397 424,-219 158,-219"/>
<text text-anchor="middle" x="291" y="-381.8" font-family="Times,serif" font-size="14.00">Core Dialects</text>
</g>
<g id="clust7" class="cluster">
<title>cluster_fhe_schemes</title>
<polygon fill="none" stroke="black" points="166,-291 166,-366 416,-366 416,-291 166,-291"/>
<text text-anchor="middle" x="291" y="-350.8" font-family="Times,serif" font-size="14.00">FHE Schemes</text>
</g>
<g id="clust8" class="cluster">
<title>cluster_poly</title>
<polygon fill="none" stroke="black" points="161,-136 161,-211 439,-211 439,-136 161,-136"/>
<text text-anchor="middle" x="300" y="-195.8" font-family="Times,serif" font-size="14.00">Polynomial Dialects</text>
</g>
<!-- Polygeist -->
<g id="node1" class="node">
<title>Polygeist</title>
<polygon fill="white" stroke="black" points="98,-779.6 16,-779.6 16,-743.6 98,-743.6 98,-779.6"/>
<text text-anchor="middle" x="57" y="-757.9" font-family="Times,serif" font-size="14.00">Polygeist</text>
</g>
<!-- Func -->
<g id="node7" class="node">
<title>Func</title>
<polygon fill="#beaed4" stroke="black" points="89,-696.6 35,-696.6 35,-660.6 89,-660.6 89,-696.6"/>
<text text-anchor="middle" x="62" y="-674.9" font-family="Times,serif" font-size="14.00">Func</text>
</g>
<!-- Polygeist&#45;&gt;Func -->
<g id="edge7" class="edge">
<title>Polygeist&#45;&gt;Func</title>
<path fill="none" stroke="black" d="M58.06,-743.42C58.17,-741.63 58.29,-739.75 58.41,-737.8"/>
<polygon fill="black" stroke="black" points="61.91,-737.8 59.04,-727.6 54.93,-737.37 61.91,-737.8"/>
</g>
<!-- TOSA -->
<g id="node2" class="node">
<title>TOSA</title>
<polygon fill="white" stroke="black" points="168,-779.6 112,-779.6 112,-743.6 168,-743.6 168,-779.6"/>
<text text-anchor="middle" x="140" y="-757.9" font-family="Times,serif" font-size="14.00">TOSA</text>
</g>
<!-- Memref -->
<g id="node8" class="node">
<title>Memref</title>
<polygon fill="#beaed4" stroke="black" points="176.5,-696.6 103.5,-696.6 103.5,-660.6 176.5,-660.6 176.5,-696.6"/>
<text text-anchor="middle" x="140" y="-674.9" font-family="Times,serif" font-size="14.00">Memref</text>
</g>
<!-- TOSA&#45;&gt;Memref -->
<g id="edge6" class="edge">
<title>TOSA&#45;&gt;Memref</title>
<path fill="none" stroke="black" d="M140,-743.42C140,-741.63 140,-739.75 140,-737.8"/>
<polygon fill="black" stroke="black" points="143.5,-737.6 140,-727.6 136.5,-737.6 143.5,-737.6"/>
</g>
<!-- Python -->
<g id="node3" class="node">
<title>Python</title>
<polygon fill="white" stroke="black" points="259.5,-779.6 192.5,-779.6 192.5,-743.6 259.5,-743.6 259.5,-779.6"/>
<text text-anchor="middle" x="226" y="-757.9" font-family="Times,serif" font-size="14.00">Python</text>
</g>
<!-- Affine -->
<g id="node6" class="node">
<title>Affine</title>
<polygon fill="#beaed4" stroke="black" points="249,-696.6 191,-696.6 191,-660.6 249,-660.6 249,-696.6"/>
<text text-anchor="middle" x="220" y="-674.9" font-family="Times,serif" font-size="14.00">Affine</text>
</g>
<!-- Python&#45;&gt;Affine -->
<g id="edge8" class="edge">
<title>Python&#45;&gt;Affine</title>
<path fill="none" stroke="black" d="M224.73,-743.42C224.6,-741.63 224.46,-739.75 224.31,-737.8"/>
<polygon fill="black" stroke="black" points="227.78,-737.31 223.56,-727.6 220.8,-737.83 227.78,-737.31"/>
</g>
<!-- Arith -->
<g id="node4" class="node">
<title>Arith</title>
<polygon fill="#beaed4" stroke="black" points="393,-696.6 339,-696.6 339,-660.6 393,-660.6 393,-696.6"/>
<text text-anchor="middle" x="366" y="-674.9" font-family="Times,serif" font-size="14.00">Arith</text>
</g>
<!-- lower_from_mlir -->
<g id="node9" class="node">
<title>lower_from_mlir</title>
<ellipse fill="black" stroke="black" cx="220" cy="-622.8" rx="1.8" ry="1.8"/>
</g>
<!-- Arith&#45;&gt;lower_from_mlir -->
<g id="edge1" class="edge">
<title>Arith&#45;&gt;lower_from_mlir</title>
<path fill="none" stroke="black" d="M345.21,-660.41C341.01,-657.5 336.5,-654.73 332,-652.6 289.91,-632.64 232.12,-625.2 221.66,-623.99"/>
</g>
<!-- Yosys -->
<g id="node10" class="node">
<title>Yosys</title>
<polygon fill="#ffff99" stroke="black" points="405.29,-487.54 405.29,-502.46 382.28,-513 349.72,-513 326.71,-502.46 326.71,-487.54 349.72,-477 382.28,-477 405.29,-487.54"/>
<text text-anchor="middle" x="366" y="-491.3" font-family="Times,serif" font-size="14.00">Yosys</text>
</g>
<!-- Arith&#45;&gt;Yosys -->
<!-- Linalg -->
<g id="node5" class="node">
<title>Linalg</title>
<polygon fill="#beaed4" stroke="black" points="324.5,-696.6 263.5,-696.6 263.5,-660.6 324.5,-660.6 324.5,-696.6"/>
<text text-anchor="middle" x="294" y="-674.9" font-family="Times,serif" font-size="14.00">Linalg</text>
</g>
<!-- Linalg&#45;&gt;lower_from_mlir -->
<g id="edge2" class="edge">
<title>Linalg&#45;&gt;lower_from_mlir</title>
<path fill="none" stroke="black" d="M270.59,-660.58C251.62,-646.79 227.11,-628.97 221.28,-624.73"/>
</g>
<!-- Affine&#45;&gt;lower_from_mlir -->
<g id="edge3" class="edge">
<title>Affine&#45;&gt;lower_from_mlir</title>
<path fill="none" stroke="black" d="M220,-660.58C220,-646.79 220,-628.97 220,-624.73"/>
</g>
<!-- Func&#45;&gt;lower_from_mlir -->
<g id="edge4" class="edge">
<title>Func&#45;&gt;lower_from_mlir</title>
<path fill="none" stroke="black" d="M83.04,-660.6C87.46,-657.6 92.24,-654.76 97,-652.6 143.75,-631.43 207.8,-624.9 218.47,-623.93"/>
</g>
<!-- Memref&#45;&gt;lower_from_mlir -->
<g id="edge5" class="edge">
<title>Memref&#45;&gt;lower_from_mlir</title>
<path fill="none" stroke="black" d="M165.31,-660.58C185.82,-646.79 212.31,-628.97 218.61,-624.73"/>
</g>
<!-- Secret -->
<g id="node11" class="node">
<title>Secret</title>
<g id="a_node11"><a xlink:href="https://heir.dev/docs/dialects/secret/" xlink:title="Secret">
<polygon fill="white" stroke="black" points="251.5,-585 188.5,-585 188.5,-549 251.5,-549 251.5,-585"/>
<text text-anchor="middle" x="220" y="-563.3" font-family="Times,serif" font-size="14.00">Secret</text>
</a>
</g>
</g>
<!-- lower_from_mlir&#45;&gt;Secret -->
<g id="edge9" class="edge">
<title>lower_from_mlir&#45;&gt;Secret</title>
<path fill="none" stroke="black" d="M220,-620.87C220,-617.64 220,-606.55 220,-595.35"/>
<polygon fill="black" stroke="black" points="223.5,-595.26 220,-585.26 216.5,-595.26 223.5,-595.26"/>
</g>
<!-- Comb -->
<g id="node12" class="node">
<title>Comb</title>
<g id="a_node12"><a xlink:href="https://heir.dev/docs/dialects/comb/" xlink:title="Comb">
<polygon fill="white" stroke="black" points="416,-441 358,-441 358,-405 416,-405 416,-441"/>
<text text-anchor="middle" x="387" y="-419.3" font-family="Times,serif" font-size="14.00">Comb</text>
</a>
</g>
</g>
<!-- Yosys&#45;&gt;Comb -->
<g id="edge11" class="edge">
<title>Yosys&#45;&gt;Comb</title>
<path fill="none" stroke="black" d="M371.19,-476.7C373.53,-468.9 376.35,-459.51 378.95,-450.83"/>
<polygon fill="black" stroke="black" points="382.35,-451.69 381.87,-441.1 375.64,-449.68 382.35,-451.69"/>
</g>
<!-- Secret&#45;&gt;Yosys -->
<g id="edge10" class="edge">
<title>Secret&#45;&gt;Yosys</title>
<path fill="none" stroke="black" d="M251.68,-550.81C274.93,-539.66 306.51,-524.52 330.59,-512.98"/>
<polygon fill="black" stroke="black" points="332.24,-516.07 339.75,-508.59 329.22,-509.75 332.24,-516.07"/>
</g>
<!-- Verilog -->
<g id="node13" class="node">
<title>Verilog</title>
<polygon fill="#7fc97f" stroke="black" points="123.5,-36 62.5,-36 62.5,0 129.5,0 129.5,-30 123.5,-36"/>
<polyline fill="none" stroke="black" points="123.5,-36 123.5,-30 "/>
<polyline fill="none" stroke="black" points="129.5,-30 123.5,-30 "/>
<text text-anchor="middle" x="96" y="-14.3" font-family="Times,serif" font-size="14.00">Verilog</text>
</g>
<!-- Secret&#45;&gt;Verilog -->
<g id="edge12" class="edge">
<title>Secret&#45;&gt;Verilog</title>
<path fill="none" stroke="black" d="M188.23,-554.03C142.35,-534.44 63,-490.89 63,-424 63,-424 63,-424 63,-161 63,-119.97 76.23,-73.97 85.94,-45.74"/>
<polygon fill="black" stroke="black" points="89.28,-46.78 89.32,-36.19 82.68,-44.45 89.28,-46.78"/>
</g>
<!-- Mgmt -->
<g id="node14" class="node">
<title>Mgmt</title>
<g id="a_node14"><a xlink:href="https://heir.dev/docs/dialects/mgmt/" xlink:title="Mgmt">
<polygon fill="white" stroke="black" points="249.5,-441 190.5,-441 190.5,-405 249.5,-405 249.5,-441"/>
<text text-anchor="middle" x="220" y="-419.3" font-family="Times,serif" font-size="14.00">Mgmt</text>
</a>
</g>
</g>
<!-- Secret&#45;&gt;Mgmt -->
<g id="edge13" class="edge">
<title>Secret&#45;&gt;Mgmt</title>
<path fill="none" stroke="black" d="M220,-548.87C220,-524.67 220,-480.21 220,-451.39"/>
<polygon fill="black" stroke="black" points="223.5,-451.19 220,-441.19 216.5,-451.19 223.5,-451.19"/>
</g>
<!-- CGGI -->
<g id="node18" class="node">
<title>CGGI</title>
<g id="a_node18"><a xlink:href="https://heir.dev/docs/dialects/cggi/" xlink:title="CGGI">
<polygon fill="white" stroke="black" points="407.5,-335 352.5,-335 352.5,-299 407.5,-299 407.5,-335"/>
<text text-anchor="middle" x="380" y="-313.3" font-family="Times,serif" font-size="14.00">CGGI</text>
</a>
</g>
</g>
<!-- Comb&#45;&gt;CGGI -->
<g id="edge15" class="edge">
<title>Comb&#45;&gt;CGGI:ne</title>
<path fill="none" stroke="black" d="M399.21,-404.97C409.78,-388.32 422.16,-362.83 413.84,-344.41"/>
<polygon fill="black" stroke="black" points="416.58,-342.21 408,-336 410.83,-346.21 416.58,-342.21"/>
</g>
<!-- BGV -->
<g id="node16" class="node">
<title>BGV</title>
<g id="a_node16"><a xlink:href="https://heir.dev/docs/dialects/bgv/" xlink:title="BGV(B/FV)">
<polygon fill="white" stroke="black" points="266.5,-335 173.5,-335 173.5,-299 266.5,-299 266.5,-335"/>
<text text-anchor="middle" x="220" y="-313.3" font-family="Times,serif" font-size="14.00">BGV(B/FV)</text>
</a>
</g>
</g>
<!-- Mgmt&#45;&gt;BGV -->
<g id="edge14" class="edge">
<title>Mgmt&#45;&gt;BGV</title>
<path fill="none" stroke="black" d="M220,-404.83C220,-404.67 220,-404.52 220,-404.37"/>
<polygon fill="black" stroke="black" points="223.5,-407 220,-397 216.5,-407 223.5,-407"/>
</g>
<!-- LWE -->
<g id="node15" class="node">
<title>LWE</title>
<g id="a_node15"><a xlink:href="https://heir.dev/docs/dialects/lwe/" xlink:title="LWE">
<polygon fill="white" stroke="black" points="321,-263 267,-263 267,-227 321,-227 321,-263"/>
<text text-anchor="middle" x="294" y="-241.3" font-family="Times,serif" font-size="14.00">LWE</text>
</a>
</g>
</g>
<!-- Polynomial -->
<g id="node19" class="node">
<title>Polynomial</title>
<g id="a_node19"><a xlink:href="https://heir.dev/docs/dialects/polynomial/" xlink:title="Polynomial">
<polygon fill="white" stroke="black" points="430.5,-180 335.5,-180 335.5,-144 430.5,-144 430.5,-180"/>
<text text-anchor="middle" x="383" y="-158.3" font-family="Times,serif" font-size="14.00">Polynomial</text>
</a>
</g>
</g>
<!-- LWE&#45;&gt;Polynomial -->
<g id="edge21" class="edge">
<title>LWE&#45;&gt;Polynomial</title>
<path fill="none" stroke="black" d="M312.87,-226.82C315.91,-224.06 319.18,-221.09 322.59,-217.98"/>
<polygon fill="black" stroke="black" points="325.22,-220.32 330.26,-211 320.51,-215.14 325.22,-220.32"/>
</g>
<!-- RNS -->
<g id="node20" class="node">
<title>RNS</title>
<g id="a_node20"><a xlink:href="https://heir.dev/docs/dialects/rns/" xlink:title="RNS">
<polygon fill="white" stroke="black" points="321,-180 267,-180 267,-144 321,-144 321,-180"/>
<text text-anchor="middle" x="294" y="-158.3" font-family="Times,serif" font-size="14.00">RNS</text>
</a>
</g>
</g>
<!-- LWE&#45;&gt;RNS -->
<!-- lower_from_lwe -->
<g id="node29" class="node">
<title>lower_from_lwe</title>
<ellipse fill="black" stroke="black" cx="151" cy="-162" rx="1.8" ry="1.8"/>
</g>
<!-- LWE&#45;&gt;lower_from_lwe -->
<g id="edge18" class="edge">
<title>LWE&#45;&gt;lower_from_lwe</title>
<path fill="none" stroke="black" d="M266.98,-241.02C231.61,-236.53 172.44,-226.85 158,-211 144.84,-196.56 149.78,-168.87 150.83,-163.81"/>
</g>
<!-- BGV&#45;&gt;LWE -->
<g id="edge16" class="edge">
<title>BGV&#45;&gt;LWE</title>
<path fill="none" stroke="black" d="M238.29,-298.7C247.43,-290.05 258.64,-279.45 268.6,-270.03"/>
<polygon fill="black" stroke="black" points="271.06,-272.52 275.92,-263.1 266.25,-267.43 271.06,-272.52"/>
</g>
<!-- CKKS -->
<g id="node17" class="node">
<title>CKKS</title>
<g id="a_node17"><a xlink:href="https://heir.dev/docs/dialects/ckks/" xlink:title="CKKS">
<polygon fill="white" stroke="black" points="338,-335 280,-335 280,-299 338,-299 338,-335"/>
<text text-anchor="middle" x="309" y="-313.3" font-family="Times,serif" font-size="14.00">CKKS</text>
</a>
</g>
</g>
<!-- CKKS&#45;&gt;LWE -->
<g id="edge17" class="edge">
<title>CKKS&#45;&gt;LWE</title>
<path fill="none" stroke="black" d="M305.29,-298.7C303.64,-290.98 301.65,-281.71 299.81,-273.11"/>
<polygon fill="black" stroke="black" points="303.18,-272.15 297.67,-263.1 296.34,-273.62 303.18,-272.15"/>
</g>
<!-- lower_from_cggi -->
<g id="node30" class="node">
<title>lower_from_cggi</title>
<ellipse fill="black" stroke="black" cx="496" cy="-162" rx="1.8" ry="1.8"/>
</g>
<!-- CGGI&#45;&gt;lower_from_cggi -->
<g id="edge22" class="edge">
<title>CGGI&#45;&gt;lower_from_cggi</title>
<path fill="none" stroke="black" d="M395.8,-298.72C404.9,-288.54 416.4,-275.29 426,-263 456.77,-223.58 490.3,-171.85 495.35,-164.01"/>
</g>
<!-- Lattigo -->
<g id="node22" class="node">
<title>Lattigo</title>
<g id="a_node22"><a xlink:href="https://heir.dev/docs/dialects/lattigo/" xlink:title="Lattigo">
<polygon fill="white" stroke="black" points="253,-108 185,-108 185,-72 253,-72 253,-108"/>
<text text-anchor="middle" x="219" y="-86.3" font-family="Times,serif" font-size="14.00">Lattigo</text>
</a>
</g>
</g>
<!-- Polynomial&#45;&gt;Lattigo -->
<!-- OpenFHE -->
<g id="node23" class="node">
<title>OpenFHE</title>
<g id="a_node23"><a xlink:href="https://heir.dev/docs/dialects/openfhe/" xlink:title="OpenFHE">
<polygon fill="white" stroke="black" points="171,-108 85,-108 85,-72 171,-72 171,-108"/>
<text text-anchor="middle" x="128" y="-86.3" font-family="Times,serif" font-size="14.00">OpenFHE</text>
</a>
</g>
</g>
<!-- Polynomial&#45;&gt;OpenFHE -->
<!-- Standard -->
<g id="node24" class="node">
<title>Standard</title>
<polygon fill="#beaed4" stroke="black" points="350.5,-108 267.5,-108 267.5,-72 350.5,-72 350.5,-108"/>
<text text-anchor="middle" x="309" y="-86.3" font-family="Times,serif" font-size="14.00">Standard</text>
</g>
<!-- Polynomial&#45;&gt;Standard -->
<g id="edge26" class="edge">
<title>Polynomial&#45;&gt;Standard</title>
<path fill="none" stroke="black" d="M364.71,-143.7C355.57,-135.05 344.36,-124.45 334.4,-115.03"/>
<polygon fill="black" stroke="black" points="336.75,-112.43 327.08,-108.1 331.94,-117.52 336.75,-112.43"/>
</g>
<!-- Jaxite -->
<g id="node25" class="node">
<title>Jaxite</title>
<g id="a_node25"><a xlink:href="https://heir.dev/docs/dialects/jaxite/" xlink:title="Jaxite">
<polygon fill="white" stroke="black" points="548.5,-108 491.5,-108 491.5,-72 548.5,-72 548.5,-108"/>
<text text-anchor="middle" x="520" y="-86.3" font-family="Times,serif" font-size="14.00">Jaxite</text>
</a>
</g>
</g>
<!-- Polynomial&#45;&gt;Jaxite -->
<!-- TfheRust -->
<g id="node26" class="node">
<title>TfheRust</title>
<g id="a_node26"><a xlink:href="https://heir.dev/docs/dialects/tfherust/" xlink:title="TfheRust">
<polygon fill="white" stroke="black" points="643.5,-108 562.5,-108 562.5,-72 643.5,-72 643.5,-108"/>
<text text-anchor="middle" x="603" y="-86.3" font-family="Times,serif" font-size="14.00">TfheRust</text>
</a>
</g>
</g>
<!-- Polynomial&#45;&gt;TfheRust -->
<!-- TfheRustBool -->
<g id="node27" class="node">
<title>TfheRustBool</title>
<g id="a_node27"><a xlink:href="https://heir.dev/docs/dialects/tfherustbool/" xlink:title="TfheRustBool">
<polygon fill="white" stroke="black" points="477.5,-108 364.5,-108 364.5,-72 477.5,-72 477.5,-108"/>
<text text-anchor="middle" x="421" y="-86.3" font-family="Times,serif" font-size="14.00">TfheRustBool</text>
</a>
</g>
</g>
<!-- Polynomial&#45;&gt;TfheRustBool -->
<!-- ModArith -->
<g id="node21" class="node">
<title>ModArith</title>
<g id="a_node21"><a xlink:href="https://heir.dev/docs/dialects/modarith/" xlink:title="ModArith">
<polygon fill="white" stroke="black" points="253,-180 169,-180 169,-144 253,-144 253,-180"/>
<text text-anchor="middle" x="211" y="-158.3" font-family="Times,serif" font-size="14.00">ModArith</text>
</a>
</g>
</g>
<!-- OpenFHE&#45;&gt;Verilog -->
<!-- LLVM -->
<g id="node28" class="node">
<title>LLVM</title>
<polygon fill="gray" stroke="black" points="337.5,-36 280.5,-36 280.5,0 337.5,0 337.5,-36"/>
<text text-anchor="middle" x="309" y="-14.3" font-family="Times,serif" font-size="14.00">LLVM</text>
</g>
<!-- Standard&#45;&gt;LLVM -->
<g id="edge27" class="edge">
<title>Standard&#45;&gt;LLVM</title>
<path fill="none" stroke="black" d="M309,-71.7C309,-63.98 309,-54.71 309,-46.11"/>
<polygon fill="black" stroke="black" points="312.5,-46.1 309,-36.1 305.5,-46.1 312.5,-46.1"/>
</g>
<!-- lower_from_lwe&#45;&gt;Lattigo -->
<g id="edge19" class="edge">
<title>lower_from_lwe&#45;&gt;Lattigo</title>
<path fill="none" stroke="black" d="M151.05,-159.95C151.29,-156.3 152.47,-144.01 158,-136 163.77,-127.63 171.62,-120.22 179.76,-113.94"/>
<polygon fill="black" stroke="black" points="181.86,-116.74 187.93,-108.05 177.77,-111.06 181.86,-116.74"/>
</g>
<!-- lower_from_lwe&#45;&gt;OpenFHE -->
<g id="edge20" class="edge">
<title>lower_from_lwe&#45;&gt;OpenFHE</title>
<path fill="none" stroke="black" d="M150.74,-160.21C149.36,-156 142.65,-135.58 136.87,-118"/>
<polygon fill="black" stroke="black" points="140.07,-116.53 133.63,-108.12 133.42,-118.72 140.07,-116.53"/>
</g>
<!-- lower_from_cggi&#45;&gt;Jaxite -->
<g id="edge23" class="edge">
<title>lower_from_cggi&#45;&gt;Jaxite</title>
<path fill="none" stroke="black" d="M496.27,-160.21C497.72,-156 504.72,-135.58 510.74,-118"/>
<polygon fill="black" stroke="black" points="514.2,-118.72 514.13,-108.12 507.57,-116.45 514.2,-118.72"/>
</g>
<!-- lower_from_cggi&#45;&gt;TfheRust -->
<g id="edge24" class="edge">
<title>lower_from_cggi&#45;&gt;TfheRust</title>
<path fill="none" stroke="black" d="M497.2,-160.21C504.19,-155.64 540.29,-132.03 568.4,-113.64"/>
<polygon fill="black" stroke="black" points="570.37,-116.53 576.82,-108.12 566.54,-110.67 570.37,-116.53"/>
</g>
<!-- lower_from_cggi&#45;&gt;TfheRustBool -->
<g id="edge25" class="edge">
<title>lower_from_cggi&#45;&gt;TfheRustBool</title>
<path fill="none" stroke="black" d="M495.16,-160.21C490.38,-155.76 466.25,-133.23 446.79,-115.07"/>
<polygon fill="black" stroke="black" points="449.05,-112.39 439.35,-108.12 444.27,-117.51 449.05,-112.39"/>
</g>
</g>
</svg>
