<?xml version="1.0" encoding="UTF-8" standalone="no"?>
<!DOCTYPE svg PUBLIC "-//W3C//DTD SVG 1.1//EN"
 "http://www.w3.org/Graphics/SVG/1.1/DTD/svg11.dtd">
<!-- Generated by graphviz version 9.0.0 (20230911.1827)
 -->
<!-- Title: G Pages: 1 -->
<svg width="432pt" height="770pt"
 viewBox="0.00 0.00 432.00 770.10" xmlns="http://www.w3.org/2000/svg" xmlns:xlink="http://www.w3.org/1999/xlink">
<g id="graph0" class="graph" transform="scale(1 1) rotate(0) translate(4 766.1)">
<title>G</title>
<polygon fill="white" stroke="none" points="-4,4 -4,-766.1 428,-766.1 428,4 -4,4"/>
<g id="clust1" class="cluster">
<title>cluster_inputs</title>
<polygon fill="none" stroke="black" points="61,-677.6 61,-754.1 279,-754.1 279,-677.6 61,-677.6"/>
<text text-anchor="middle" x="170" y="-736.8" font-family="Times,serif" font-size="14.00">Upstream Frontends</text>
</g>
<g id="clust2" class="cluster">
<title>cluster_mlir</title>
<polygon fill="none" stroke="black" points="33,-593.1 33,-669.6 315,-669.6 315,-593.1 33,-593.1"/>
<text text-anchor="middle" x="174" y="-652.3" font-family="Times,serif" font-size="14.00">Upstream MLIR</text>
</g>
<g id="clust5" class="cluster">
<title>cluster_fhe</title>
<polygon fill="none" stroke="black" points="94,-220.5 94,-337.5 310,-337.5 310,-220.5 94,-220.5"/>
<text text-anchor="middle" x="202" y="-320.2" font-family="Times,serif" font-size="14.00">Core Dialects</text>
</g>
<g id="clust6" class="cluster">
<title>cluster_fhe_schemes</title>
<polygon fill="none" stroke="black" points="164,-228.5 164,-305 302,-305 302,-228.5 164,-228.5"/>
<text text-anchor="middle" x="233" y="-287.7" font-family="Times,serif" font-size="14.00">FHE Schemes</text>
</g>
<g id="clust7" class="cluster">
<title>cluster_poly</title>
<polygon fill="none" stroke="black" points="94,-136 94,-212.5 258,-212.5 258,-136 94,-136"/>
<text text-anchor="middle" x="176" y="-195.2" font-family="Times,serif" font-size="14.00">Polynomial Dialects</text>
</g>
<!-- Python -->
<g id="node1" class="node">
<title>Python</title>
<polygon fill="white" stroke="black" points="271.12,-721.6 216.88,-721.6 216.88,-685.6 271.12,-685.6 271.12,-721.6"/>
<text text-anchor="middle" x="244" y="-698.55" font-family="Times,serif" font-size="14.00">Python</text>
</g>
<!-- Polygeist -->
<g id="node2" class="node">
<title>Polygeist</title>
<polygon fill="white" stroke="black" points="135.12,-721.6 68.88,-721.6 68.88,-685.6 135.12,-685.6 135.12,-721.6"/>
<text text-anchor="middle" x="102" y="-698.55" font-family="Times,serif" font-size="14.00">Polygeist</text>
</g>
<!-- Func -->
<g id="node6" class="node">
<title>Func</title>
<polygon fill="#beaed4" stroke="black" points="95,-637.1 41,-637.1 41,-601.1 95,-601.1 95,-637.1"/>
<text text-anchor="middle" x="68" y="-614.05" font-family="Times,serif" font-size="14.00">Func</text>
</g>
<!-- Polygeist&#45;&gt;Func -->
<g id="edge6" class="edge">
<title>Polygeist&#45;&gt;Func</title>
<path fill="none" stroke="black" d="M94.79,-685.1C94.13,-683.49 93.43,-681.81 92.71,-680.07"/>
<polygon fill="black" stroke="black" points="96.02,-678.91 88.98,-671 89.55,-681.58 96.02,-678.91"/>
</g>
<!-- TOSA -->
<g id="node3" class="node">
<title>TOSA</title>
<polygon fill="white" stroke="black" points="203,-721.6 149,-721.6 149,-685.6 203,-685.6 203,-721.6"/>
<text text-anchor="middle" x="176" y="-698.55" font-family="Times,serif" font-size="14.00">TOSA</text>
</g>
<!-- Memref -->
<g id="node7" class="node">
<title>Memref</title>
<polygon fill="#beaed4" stroke="black" points="238.5,-637.1 177.5,-637.1 177.5,-601.1 238.5,-601.1 238.5,-637.1"/>
<text text-anchor="middle" x="208" y="-614.05" font-family="Times,serif" font-size="14.00">Memref</text>
</g>
<!-- TOSA&#45;&gt;Memref -->
<g id="edge5" class="edge">
<title>TOSA&#45;&gt;Memref</title>
<path fill="none" stroke="black" d="M182.79,-685.1C183.41,-683.49 184.06,-681.81 184.74,-680.07"/>
<polygon fill="black" stroke="black" points="187.9,-681.6 188.25,-671.01 181.37,-679.07 187.9,-681.6"/>
</g>
<!-- Arith -->
<g id="node4" class="node">
<title>Arith</title>
<polygon fill="#beaed4" stroke="black" points="307,-637.1 253,-637.1 253,-601.1 307,-601.1 307,-637.1"/>
<text text-anchor="middle" x="280" y="-614.05" font-family="Times,serif" font-size="14.00">Arith</text>
</g>
<!-- lower_from_mlir -->
<g id="node8" class="node">
<title>lower_from_mlir</title>
<ellipse fill="black" stroke="black" cx="199" cy="-563.3" rx="1.8" ry="1.8"/>
</g>
<!-- Arith&#45;&gt;lower_from_mlir -->
<g id="edge1" class="edge">
<title>Arith&#45;&gt;lower_from_mlir</title>
<path fill="none" stroke="black" d="M256.77,-600.62C253.2,-598.05 249.53,-595.47 246,-593.1 228.21,-581.14 205.57,-568.06 200.19,-564.98"/>
</g>
<!-- Yosys -->
<g id="node9" class="node">
<title>Yosys</title>
<polygon fill="#ffff99" stroke="black" points="316.19,-428.04 316.19,-442.96 294.99,-453.5 265.01,-453.5 243.81,-442.96 243.81,-428.04 265.01,-417.5 294.99,-417.5 316.19,-428.04"/>
<text text-anchor="middle" x="280" y="-430.45" font-family="Times,serif" font-size="14.00">Yosys</text>
</g>
<!-- Arith&#45;&gt;Yosys -->
<!-- Affine -->
<g id="node5" class="node">
<title>Affine</title>
<polygon fill="#beaed4" stroke="black" points="163,-637.1 109,-637.1 109,-601.1 163,-601.1 163,-637.1"/>
<text text-anchor="middle" x="136" y="-614.05" font-family="Times,serif" font-size="14.00">Affine</text>
</g>
<!-- Affine&#45;&gt;lower_from_mlir -->
<g id="edge2" class="edge">
<title>Affine&#45;&gt;lower_from_mlir</title>
<path fill="none" stroke="black" d="M156.28,-600.78C172.4,-587.02 193.02,-569.41 197.92,-565.22"/>
</g>
<!-- Func&#45;&gt;lower_from_mlir -->
<g id="edge3" class="edge">
<title>Func&#45;&gt;lower_from_mlir</title>
<path fill="none" stroke="black" d="M89.23,-600.79C93.31,-597.96 97.67,-595.25 102,-593.1 138.18,-575.12 187.65,-566.2 197.32,-564.57"/>
</g>
<!-- Memref&#45;&gt;lower_from_mlir -->
<g id="edge4" class="edge">
<title>Memref&#45;&gt;lower_from_mlir</title>
<path fill="none" stroke="black" d="M205.1,-600.78C202.84,-587.27 199.96,-570.04 199.19,-565.46"/>
</g>
<!-- Secret -->
<g id="node10" class="node">
<title>Secret</title>
<g id="a_node10"><a xlink:href="https://heir.dev/docs/dialects/secret/" xlink:title="Secret">
<polygon fill="white" stroke="black" points="226,-525.5 172,-525.5 172,-489.5 226,-489.5 226,-525.5"/>
<text text-anchor="middle" x="199" y="-502.45" font-family="Times,serif" font-size="14.00">Secret</text>
</a>
</g>
</g>
<!-- lower_from_mlir&#45;&gt;Secret -->
<g id="edge7" class="edge">
<title>lower_from_mlir&#45;&gt;Secret</title>
<path fill="none" stroke="black" d="M199,-561.37C199,-558.27 199,-547.94 199,-537.22"/>
<polygon fill="black" stroke="black" points="202.5,-537.27 199,-527.27 195.5,-537.27 202.5,-537.27"/>
</g>
<!-- Comb -->
<g id="node11" class="node">
<title>Comb</title>
<g id="a_node11"><a xlink:href="https://heir.dev/docs/dialects/comb/" xlink:title="Comb">
<polygon fill="white" stroke="black" points="312,-381.5 258,-381.5 258,-345.5 312,-345.5 312,-381.5"/>
<text text-anchor="middle" x="285" y="-358.45" font-family="Times,serif" font-size="14.00">Comb</text>
</a>
</g>
</g>
<!-- Yosys&#45;&gt;Comb -->
<g id="edge9" class="edge">
<title>Yosys&#45;&gt;Comb</title>
<path fill="none" stroke="black" d="M281.24,-417.2C281.76,-409.91 282.38,-401.23 282.96,-393.04"/>
<polygon fill="black" stroke="black" points="286.45,-393.34 283.67,-383.11 279.47,-392.84 286.45,-393.34"/>
</g>
<!-- Secret&#45;&gt;Yosys -->
<g id="edge8" class="edge">
<title>Secret&#45;&gt;Yosys</title>
<path fill="none" stroke="black" d="M219.02,-489.2C229.37,-480.25 242.15,-469.21 253.32,-459.56"/>
<polygon fill="black" stroke="black" points="255.44,-462.35 260.72,-453.16 250.87,-457.05 255.44,-462.35"/>
</g>
<!-- Verilog -->
<g id="node12" class="node">
<title>Verilog</title>
<polygon fill="#7fc97f" stroke="black" points="50.88,-36 1.12,-36 1.12,0 56.88,0 56.88,-30 50.88,-36"/>
<polyline fill="none" stroke="black" points="50.88,-36 50.88,-30"/>
<polyline fill="none" stroke="black" points="56.88,-30 50.88,-30"/>
<text text-anchor="middle" x="29" y="-12.95" font-family="Times,serif" font-size="14.00">Verilog</text>
</g>
<!-- Secret&#45;&gt;Verilog -->
<g id="edge10" class="edge">
<title>Secret&#45;&gt;Verilog</title>
<path fill="none" stroke="black" d="M171.75,-500.57C117.25,-486.93 0,-447.9 0,-364.5 0,-364.5 0,-364.5 0,-161 0,-120.75 11.32,-75.36 19.82,-46.97"/>
<polygon fill="black" stroke="black" points="23.07,-48.29 22.68,-37.7 16.38,-46.22 23.07,-48.29"/>
</g>
<!-- BGV -->
<g id="node14" class="node">
<title>BGV</title>
<g id="a_node14"><a xlink:href="https://heir.dev/docs/dialects/bgv/" xlink:title="BGV">
<polygon fill="white" stroke="black" points="226,-272.5 172,-272.5 172,-236.5 226,-236.5 226,-272.5"/>
<text text-anchor="middle" x="199" y="-249.45" font-family="Times,serif" font-size="14.00">BGV</text>
</a>
</g>
</g>
<!-- Secret&#45;&gt;BGV -->
<g id="edge11" class="edge">
<title>Secret&#45;&gt;BGV</title>
<path fill="none" stroke="black" d="M199,-489.25C199,-460.46 199,-400.68 199,-348.78"/>
<polygon fill="black" stroke="black" points="202.5,-349.01 199,-339.01 195.5,-349.01 202.5,-349.01"/>
</g>
<!-- CGGI -->
<g id="node15" class="node">
<title>CGGI</title>
<g id="a_node15"><a xlink:href="https://heir.dev/docs/dialects/cggi/" xlink:title="CGGI">
<polygon fill="white" stroke="black" points="294,-272.5 240,-272.5 240,-236.5 294,-236.5 294,-272.5"/>
<text text-anchor="middle" x="267" y="-249.45" font-family="Times,serif" font-size="14.00">CGGI</text>
</a>
</g>
</g>
<!-- Comb&#45;&gt;CGGI -->
<g id="edge12" class="edge">
<title>Comb&#45;&gt;CGGI:ne</title>
<path fill="none" stroke="black" d="M293.84,-345.08C301.34,-327.98 309.58,-301.77 300.61,-282.88"/>
<polygon fill="black" stroke="black" points="303.49,-280.9 294.87,-274.74 297.77,-284.93 303.49,-280.9"/>
</g>
<!-- LWE -->
<g id="node13" class="node">
<title>LWE</title>
<g id="a_node13"><a xlink:href="https://heir.dev/docs/dialects/lwe/" xlink:title="LWE">
<polygon fill="white" stroke="black" points="156,-272.5 102,-272.5 102,-236.5 156,-236.5 156,-272.5"/>
<text text-anchor="middle" x="129" y="-249.45" font-family="Times,serif" font-size="14.00">LWE</text>
</a>
</g>
</g>
<!-- RNS -->
<g id="node17" class="node">
<title>RNS</title>
<g id="a_node17"><a xlink:href="https://heir.dev/docs/dialects/rns/" xlink:title="RNS">
<polygon fill="white" stroke="black" points="156,-180 102,-180 102,-144 156,-144 156,-180"/>
<text text-anchor="middle" x="129" y="-156.95" font-family="Times,serif" font-size="14.00">RNS</text>
</a>
</g>
</g>
<!-- LWE&#45;&gt;RNS -->
<!-- Polynomial -->
<g id="node16" class="node">
<title>Polynomial</title>
<g id="a_node16"><a xlink:href="https://heir.dev/docs/dialects/polynomial/" xlink:title="Polynomial">
<polygon fill="white" stroke="black" points="249.5,-180 170.5,-180 170.5,-144 249.5,-144 249.5,-180"/>
<text text-anchor="middle" x="210" y="-156.95" font-family="Times,serif" font-size="14.00">Polynomial</text>
</a>
</g>
</g>
<!-- BGV&#45;&gt;Polynomial -->
<g id="edge13" class="edge">
<title>BGV&#45;&gt;Polynomial</title>
<path fill="none" stroke="black" d="M201.12,-236.05C201.58,-232.3 202.08,-228.13 202.62,-223.75"/>
<polygon fill="black" stroke="black" points="206.07,-224.35 203.8,-214 199.12,-223.5 206.07,-224.35"/>
</g>
<!-- OpenFHE -->
<g id="node18" class="node">
<title>OpenFHE</title>
<g id="a_node18"><a xlink:href="https://heir.dev/docs/dialects/openfhe/" xlink:title="OpenFHE">
<polygon fill="white" stroke="black" points="92.38,-108 21.62,-108 21.62,-72 92.38,-72 92.38,-108"/>
<text text-anchor="middle" x="57" y="-84.95" font-family="Times,serif" font-size="14.00">OpenFHE</text>
</a>
</g>
</g>
<!-- BGV&#45;&gt;OpenFHE -->
<g id="edge14" class="edge">
<title>BGV&#45;&gt;OpenFHE</title>
<path fill="none" stroke="black" d="M186.94,-236.25C181.81,-230.26 175.32,-224.13 168,-220.5 152.59,-212.86 104.15,-223.59 91,-212.5 64.16,-189.86 57.6,-147.94 56.45,-119.76"/>
<polygon fill="black" stroke="black" points="59.95,-119.71 56.27,-109.77 52.95,-119.83 59.95,-119.71"/>
</g>
<!-- lower_from_cggi -->
<g id="node24" class="node">
<title>lower_from_cggi</title>
<ellipse fill="black" stroke="black" cx="292" cy="-162" rx="1.8" ry="1.8"/>
</g>
<!-- CGGI&#45;&gt;lower_from_cggi -->
<g id="edge15" class="edge">
<title>CGGI&#45;&gt;lower_from_cggi</title>
<path fill="none" stroke="black" d="M271.82,-236.05C278.4,-212.22 289.63,-171.59 291.67,-164.18"/>
</g>
<!-- Polynomial&#45;&gt;OpenFHE -->
<!-- Standard -->
<g id="node19" class="node">
<title>Standard</title>
<polygon fill="#beaed4" stroke="black" points="170,-108 106,-108 106,-72 170,-72 170,-108"/>
<text text-anchor="middle" x="138" y="-84.95" font-family="Times,serif" font-size="14.00">Standard</text>
</g>
<!-- Polynomial&#45;&gt;Standard -->
<g id="edge19" class="edge">
<title>Polynomial&#45;&gt;Standard</title>
<path fill="none" stroke="black" d="M192.2,-143.7C183.72,-135.45 173.41,-125.43 164.07,-116.35"/>
<polygon fill="black" stroke="black" points="166.54,-113.86 156.93,-109.4 161.66,-118.88 166.54,-113.86"/>
</g>
<!-- Jaxite -->
<g id="node20" class="node">
<title>Jaxite</title>
<g id="a_node20"><a xlink:href="https://heir.dev/docs/dialects/jaxite/" xlink:title="Jaxite">
<polygon fill="white" stroke="black" points="424,-108 370,-108 370,-72 424,-72 424,-108"/>
<text text-anchor="middle" x="397" y="-84.95" font-family="Times,serif" font-size="14.00">Jaxite</text>
</a>
</g>
</g>
<!-- Polynomial&#45;&gt;Jaxite -->
<!-- TfheRust -->
<g id="node21" class="node">
<title>TfheRust</title>
<g id="a_node21"><a xlink:href="https://heir.dev/docs/dialects/tfherust/" xlink:title="TfheRust">
<polygon fill="white" stroke="black" points="250.12,-108 183.88,-108 183.88,-72 250.12,-72 250.12,-108"/>
<text text-anchor="middle" x="217" y="-84.95" font-family="Times,serif" font-size="14.00">TfheRust</text>
</a>
</g>
</g>
<!-- Polynomial&#45;&gt;TfheRust -->
<!-- TfheRustBool -->
<g id="node22" class="node">
<title>TfheRustBool</title>
<g id="a_node22"><a xlink:href="https://heir.dev/docs/dialects/tfherustbool/" xlink:title="TfheRustBool">
<polygon fill="white" stroke="black" points="356.25,-108 263.75,-108 263.75,-72 356.25,-72 356.25,-108"/>
<text text-anchor="middle" x="310" y="-84.95" font-family="Times,serif" font-size="14.00">TfheRustBool</text>
</a>
</g>
</g>
<!-- Polynomial&#45;&gt;TfheRustBool -->
<!-- OpenFHE&#45;&gt;Verilog -->
<!-- LLVM -->
<g id="node23" class="node">
<title>LLVM</title>
<polygon fill="gray" stroke="black" points="165.12,-36 110.88,-36 110.88,0 165.12,0 165.12,-36"/>
<text text-anchor="middle" x="138" y="-12.95" font-family="Times,serif" font-size="14.00">LLVM</text>
</g>
<!-- Standard&#45;&gt;LLVM -->
<g id="edge20" class="edge">
<title>Standard&#45;&gt;LLVM</title>
<path fill="none" stroke="black" d="M138,-71.7C138,-64.41 138,-55.73 138,-47.54"/>
<polygon fill="black" stroke="black" points="141.5,-47.62 138,-37.62 134.5,-47.62 141.5,-47.62"/>
</g>
<!-- lower_from_cggi&#45;&gt;Jaxite -->
<g id="edge16" class="edge">
<title>lower_from_cggi&#45;&gt;Jaxite</title>
<path fill="none" stroke="black" d="M293.18,-160.21C299.91,-155.73 334.14,-132.91 361.48,-114.68"/>
<polygon fill="black" stroke="black" points="363.17,-117.76 369.55,-109.3 359.29,-111.94 363.17,-117.76"/>
</g>
<!-- lower_from_cggi&#45;&gt;TfheRust -->
<g id="edge17" class="edge">
<title>lower_from_cggi&#45;&gt;TfheRust</title>
<path fill="none" stroke="black" d="M290.94,-160.01C285.78,-155.2 262.8,-133.75 243.81,-116.02"/>
<polygon fill="black" stroke="black" points="246.25,-113.51 236.55,-109.24 241.47,-118.63 246.25,-113.51"/>
</g>
<!-- lower_from_cggi&#45;&gt;TfheRustBool -->
<g id="edge18" class="edge">
<title>lower_from_cggi&#45;&gt;TfheRustBool</title>
<path fill="none" stroke="black" d="M292.31,-159.79C293.57,-154.89 298.41,-136.06 302.71,-119.34"/>
<polygon fill="black" stroke="black" points="306.08,-120.31 305.18,-109.76 299.3,-118.57 306.08,-120.31"/>
</g>
</g>
</svg>
