<?xml version="1.0" encoding="UTF-8" standalone="no"?>
<!DOCTYPE svg PUBLIC "-//W3C//DTD SVG 1.1//EN"
 "http://www.w3.org/Graphics/SVG/1.1/DTD/svg11.dtd">
<!-- Generated by graphviz version 2.43.0 (0)
 -->
<!-- Title: G Pages: 1 -->
<svg width="1299pt" height="1264pt"
 viewBox="0.00 0.00 1299.00 1264.47" xmlns="http://www.w3.org/2000/svg" xmlns:xlink="http://www.w3.org/1999/xlink">
<g id="graph0" class="graph" transform="scale(1 1) rotate(0) translate(4 1260.47)">
<title>G</title>
<polygon fill="white" stroke="transparent" points="-4,4 -4,-1260.47 1295,-1260.47 1295,4 -4,4"/>
<g id="clust1" class="cluster">
<title>cluster_1</title>
<polygon fill="none" stroke="black" points="8,-8 8,-1248.47 1283,-1248.47 1283,-8 8,-8"/>
<text text-anchor="middle" x="645.5" y="-1233.27" font-family="Times,serif" font-size="14.00">builtin.module : ()</text>
</g>
<g id="clust2" class="cluster">
<title>cluster_3</title>
<polygon fill="none" stroke="black" points="31,-16 31,-1217.47 1275,-1217.47 1275,-16 31,-16"/>
</g>
<g id="clust3" class="cluster">
<title>cluster_5</title>
<polygon fill="none" stroke="black" points="54,-24 54,-1209.47 1267,-1209.47 1267,-24 54,-24"/>
<text text-anchor="middle" x="660.5" y="-1194.27" font-family="Times,serif" font-size="14.00">func.func : ()</text>
<text text-anchor="middle" x="660.5" y="-1163.27" font-family="Times,serif" font-size="14.00">function_type: (!secret.secret&lt;tens...</text>
<text text-anchor="middle" x="660.5" y="-1148.27" font-family="Times,serif" font-size="14.00">sym_name: &quot;dot_product&quot;</text>
</g>
<g id="clust4" class="cluster">
<title>cluster_7</title>
<polygon fill="none" stroke="black" points="76,-32 76,-1132.47 1259,-1132.47 1259,-32 76,-32"/>
</g>
<g id="clust5" class="cluster">
<title>cluster_15</title>
<polygon fill="none" stroke="black" points="346,-40 346,-1061.47 812,-1061.47 812,-40 346,-40"/>
<text text-anchor="middle" x="579" y="-1046.27" font-family="Times,serif" font-size="14.00">secret.generic : (!secret.secret&lt;i16&gt;)</text>
</g>
<g id="clust6" class="cluster">
<title>cluster_17</title>
<polygon fill="none" stroke="black" points="354,-48 354,-1030.47 790,-1030.47 790,-48 354,-48"/>
</g>
<!-- v2 -->
<g id="node1" class="node">
<title>v2</title>
<text text-anchor="middle" x="19" y="-1102.77" font-family="Times,serif" font-size="14.00"> </text>
</g>
<!-- v4 -->
<g id="node2" class="node">
<title>v4</title>
<text text-anchor="middle" x="42" y="-1102.77" font-family="Times,serif" font-size="14.00"> </text>
</g>
<!-- v6 -->
<g id="node3" class="node">
<title>v6</title>
<text text-anchor="middle" x="65" y="-1102.77" font-family="Times,serif" font-size="14.00"> </text>
</g>
<!-- v8 -->
<g id="node4" class="node">
<title>v8</title>
<text text-anchor="middle" x="1054" y="-1102.77" font-family="Times,serif" font-size="14.00"> </text>
</g>
<!-- v9 -->
<g id="node5" class="node">
<title>v9</title>
<ellipse fill="none" stroke="black" cx="842" cy="-1106.47" rx="32.49" ry="18"/>
<text text-anchor="middle" x="842" y="-1102.77" font-family="Times,serif" font-size="14.00">arg0</text>
</g>
<!-- v16 -->
<g id="node11" class="node">
<title>v16</title>
<text text-anchor="middle" x="801" y="-1000.77" font-family="Times,serif" font-size="14.00"> </text>
</g>
<!-- v9&#45;&gt;v16 -->
<g id="edge18" class="edge">
<title>v9&#45;&gt;v16</title>
<path fill="none" stroke="black" d="M835.04,-1088.51C829.82,-1075.76 822.47,-1057.83 815.93,-1041.89"/>
<polygon fill="black" stroke="black" points="819.03,-1040.22 812,-1032.29 812.55,-1042.87 819.03,-1040.22"/>
</g>
<!-- v10 -->
<g id="node6" class="node">
<title>v10</title>
<ellipse fill="none" stroke="black" cx="759" cy="-1106.47" rx="32.49" ry="18"/>
<text text-anchor="middle" x="759" y="-1102.77" font-family="Times,serif" font-size="14.00">arg1</text>
</g>
<!-- v10&#45;&gt;v16 -->
<g id="edge19" class="edge">
<title>v10&#45;&gt;v16</title>
<path fill="none" stroke="black" d="M774.29,-1090.55C779.46,-1084.84 785.04,-1077.89 789.45,-1070.43"/>
<polygon fill="black" stroke="black" points="792.59,-1071.97 794,-1061.47 786.35,-1068.8 792.59,-1071.97"/>
</g>
<!-- v11 -->
<g id="node7" class="node">
<title>v11</title>
<ellipse fill="#ff0000" stroke="black" cx="947" cy="-468.55" rx="127.06" ry="38.37"/>
<text text-anchor="middle" x="947" y="-480.35" font-family="Times,serif" font-size="14.00">arith.constant : (index)</text>
<text text-anchor="middle" x="947" y="-449.35" font-family="Times,serif" font-size="14.00">value: 1 : index</text>
</g>
<!-- v26 -->
<g id="node20" class="node">
<title>v26</title>
<ellipse fill="#cbff00" stroke="black" cx="605" cy="-361.37" rx="177.37" ry="18"/>
<text text-anchor="middle" x="605" y="-357.67" font-family="Times,serif" font-size="14.00">tensor_ext.rotate : (tensor&lt;8xi16&gt;)</text>
</g>
<!-- v11&#45;&gt;v26 -->
<g id="edge12" class="edge">
<title>v11&#45;&gt;v26</title>
<path fill="none" stroke="black" d="M859.37,-440.6C799.38,-422.15 721.26,-398.12 667.51,-381.59"/>
<polygon fill="black" stroke="black" points="668.35,-378.19 657.76,-378.59 666.29,-384.88 668.35,-378.19"/>
<text text-anchor="middle" x="770" y="-401.17" font-family="Times,serif" font-size="14.00">1</text>
</g>
<!-- v12 -->
<g id="node8" class="node">
<title>v12</title>
<ellipse fill="#ff0000" stroke="black" cx="947" cy="-682.92" rx="127.06" ry="38.37"/>
<text text-anchor="middle" x="947" y="-694.72" font-family="Times,serif" font-size="14.00">arith.constant : (index)</text>
<text text-anchor="middle" x="947" y="-663.72" font-family="Times,serif" font-size="14.00">value: 2 : index</text>
</g>
<!-- v24 -->
<g id="node18" class="node">
<title>v24</title>
<ellipse fill="#cbff00" stroke="black" cx="605" cy="-575.74" rx="177.37" ry="18"/>
<text text-anchor="middle" x="605" y="-572.04" font-family="Times,serif" font-size="14.00">tensor_ext.rotate : (tensor&lt;8xi16&gt;)</text>
</g>
<!-- v12&#45;&gt;v24 -->
<g id="edge8" class="edge">
<title>v12&#45;&gt;v24</title>
<path fill="none" stroke="black" d="M859.37,-654.97C799.38,-636.52 721.26,-612.49 667.51,-595.96"/>
<polygon fill="black" stroke="black" points="668.35,-592.56 657.76,-592.96 666.29,-599.25 668.35,-592.56"/>
<text text-anchor="middle" x="770" y="-615.54" font-family="Times,serif" font-size="14.00">1</text>
</g>
<!-- v13 -->
<g id="node9" class="node">
<title>v13</title>
<ellipse fill="#ff0000" stroke="black" cx="1124" cy="-897.29" rx="127.06" ry="38.37"/>
<text text-anchor="middle" x="1124" y="-909.09" font-family="Times,serif" font-size="14.00">arith.constant : (index)</text>
<text text-anchor="middle" x="1124" y="-878.09" font-family="Times,serif" font-size="14.00">value: 4 : index</text>
</g>
<!-- v22 -->
<g id="node16" class="node">
<title>v22</title>
<ellipse fill="#cbff00" stroke="black" cx="605" cy="-790.1" rx="177.37" ry="18"/>
<text text-anchor="middle" x="605" y="-786.4" font-family="Times,serif" font-size="14.00">tensor_ext.rotate : (tensor&lt;8xi16&gt;)</text>
</g>
<!-- v13&#45;&gt;v22 -->
<g id="edge4" class="edge">
<title>v13&#45;&gt;v22</title>
<path fill="none" stroke="black" d="M1033.27,-870.45C1017.89,-866.41 1002.03,-862.47 987,-859.1 893.59,-838.15 786.16,-819.51 709.07,-807.06"/>
<polygon fill="black" stroke="black" points="709.3,-803.56 698.87,-805.43 708.19,-810.47 709.3,-803.56"/>
<text text-anchor="middle" x="898" y="-829.9" font-family="Times,serif" font-size="14.00">1</text>
</g>
<!-- v14 -->
<g id="node10" class="node">
<title>v14</title>
<ellipse fill="#ff0000" stroke="black" cx="211" cy="-254.18" rx="127.06" ry="38.37"/>
<text text-anchor="middle" x="211" y="-265.98" font-family="Times,serif" font-size="14.00">arith.constant : (index)</text>
<text text-anchor="middle" x="211" y="-234.98" font-family="Times,serif" font-size="14.00">value: 7 : index</text>
</g>
<!-- v28 -->
<g id="node22" class="node">
<title>v28</title>
<ellipse fill="#00ff66" stroke="black" cx="520" cy="-147" rx="105.88" ry="18"/>
<text text-anchor="middle" x="520" y="-143.3" font-family="Times,serif" font-size="14.00">tensor.extract : (i16)</text>
</g>
<!-- v14&#45;&gt;v28 -->
<g id="edge16" class="edge">
<title>v14&#45;&gt;v28</title>
<path fill="none" stroke="black" d="M293.81,-225C348.16,-206.49 417.73,-182.81 465.27,-166.63"/>
<polygon fill="black" stroke="black" points="466.43,-169.93 474.77,-163.4 464.18,-163.31 466.43,-169.93"/>
<text text-anchor="middle" x="416" y="-186.8" font-family="Times,serif" font-size="14.00">1</text>
</g>
<!-- v30 -->
<g id="node24" class="node">
<title>v30</title>
<ellipse fill="#3200ff" stroke="black" cx="899" cy="-897.29" rx="79.09" ry="18"/>
<text text-anchor="middle" x="899" y="-893.59" font-family="Times,serif" font-size="14.00">func.return : ()</text>
</g>
<!-- v16&#45;&gt;v30 -->
<g id="edge20" class="edge">
<title>v16&#45;&gt;v30</title>
<path fill="none" stroke="black" d="M812,-991.67C827.55,-974.98 856.31,-944.1 876.5,-922.44"/>
<polygon fill="black" stroke="black" points="879.13,-924.74 883.39,-915.04 874.01,-919.97 879.13,-924.74"/>
</g>
<!-- v18 -->
<g id="node12" class="node">
<title>v18</title>
<text text-anchor="middle" x="718" y="-1000.77" font-family="Times,serif" font-size="14.00"> </text>
</g>
<!-- v19 -->
<g id="node13" class="node">
<title>v19</title>
<ellipse fill="none" stroke="black" cx="614" cy="-1004.47" rx="32.49" ry="18"/>
<text text-anchor="middle" x="614" y="-1000.77" font-family="Times,serif" font-size="14.00">arg0</text>
</g>
<!-- v21 -->
<g id="node15" class="node">
<title>v21</title>
<ellipse fill="#ff9900" stroke="black" cx="572" cy="-897.29" rx="210.02" ry="38.37"/>
<text text-anchor="middle" x="572" y="-909.09" font-family="Times,serif" font-size="14.00">arith.muli : (tensor&lt;8xi16&gt;)</text>
<text text-anchor="middle" x="572" y="-878.09" font-family="Times,serif" font-size="14.00">overflowFlags: #arith.overflow&lt;none...</text>
</g>
<!-- v19&#45;&gt;v21 -->
<g id="edge1" class="edge">
<title>v19&#45;&gt;v21</title>
<path fill="none" stroke="black" d="M607.25,-986.57C602.76,-975.33 596.63,-959.97 590.74,-945.21"/>
<polygon fill="black" stroke="black" points="593.88,-943.63 586.92,-935.64 587.37,-946.23 593.88,-943.63"/>
<text text-anchor="middle" x="604" y="-957.27" font-family="Times,serif" font-size="14.00">0</text>
</g>
<!-- v20 -->
<g id="node14" class="node">
<title>v20</title>
<ellipse fill="none" stroke="black" cx="531" cy="-1004.47" rx="32.49" ry="18"/>
<text text-anchor="middle" x="531" y="-1000.77" font-family="Times,serif" font-size="14.00">arg1</text>
</g>
<!-- v20&#45;&gt;v21 -->
<g id="edge2" class="edge">
<title>v20&#45;&gt;v21</title>
<path fill="none" stroke="black" d="M537.59,-986.57C541.97,-975.33 547.96,-959.97 553.71,-945.21"/>
<polygon fill="black" stroke="black" points="557.07,-946.23 557.44,-935.64 550.55,-943.69 557.07,-946.23"/>
<text text-anchor="middle" x="555" y="-957.27" font-family="Times,serif" font-size="14.00">1</text>
</g>
<!-- v21&#45;&gt;v22 -->
<g id="edge3" class="edge">
<title>v21&#45;&gt;v22</title>
<path fill="none" stroke="black" d="M578.83,-859.05C581.25,-848.28 584.31,-836.6 588,-826.1 589.02,-823.2 590.22,-820.22 591.49,-817.29"/>
<polygon fill="black" stroke="black" points="594.67,-818.76 595.72,-808.21 588.33,-815.8 594.67,-818.76"/>
<text text-anchor="middle" x="593" y="-829.9" font-family="Times,serif" font-size="14.00">0</text>
</g>
<!-- v23 -->
<g id="node17" class="node">
<title>v23</title>
<ellipse fill="#33ff00" stroke="black" cx="572" cy="-682.92" rx="210.02" ry="38.37"/>
<text text-anchor="middle" x="572" y="-694.72" font-family="Times,serif" font-size="14.00">arith.addi : (tensor&lt;8xi16&gt;)</text>
<text text-anchor="middle" x="572" y="-663.72" font-family="Times,serif" font-size="14.00">overflowFlags: #arith.overflow&lt;none...</text>
</g>
<!-- v21&#45;&gt;v23 -->
<g id="edge5" class="edge">
<title>v21&#45;&gt;v23</title>
<path fill="none" stroke="black" d="M472.27,-863.62C447.29,-850.45 423.49,-832.42 409,-808.1 387.24,-771.58 421.31,-742.1 463.83,-721.04"/>
<polygon fill="black" stroke="black" points="465.49,-724.13 473.02,-716.67 462.48,-717.8 465.49,-724.13"/>
<text text-anchor="middle" x="414" y="-786.4" font-family="Times,serif" font-size="14.00">0</text>
</g>
<!-- v22&#45;&gt;v23 -->
<g id="edge6" class="edge">
<title>v22&#45;&gt;v23</title>
<path fill="none" stroke="black" d="M599.55,-771.73C596.07,-760.64 591.38,-745.68 586.85,-731.25"/>
<polygon fill="black" stroke="black" points="590.09,-729.89 583.76,-721.4 583.41,-731.99 590.09,-729.89"/>
<text text-anchor="middle" x="598" y="-742.9" font-family="Times,serif" font-size="14.00">1</text>
</g>
<!-- v23&#45;&gt;v24 -->
<g id="edge7" class="edge">
<title>v23&#45;&gt;v24</title>
<path fill="none" stroke="black" d="M578.83,-644.68C581.25,-633.91 584.31,-622.23 588,-611.74 589.02,-608.83 590.22,-605.86 591.49,-602.92"/>
<polygon fill="black" stroke="black" points="594.67,-604.39 595.72,-593.85 588.33,-601.43 594.67,-604.39"/>
<text text-anchor="middle" x="593" y="-615.54" font-family="Times,serif" font-size="14.00">0</text>
</g>
<!-- v25 -->
<g id="node19" class="node">
<title>v25</title>
<ellipse fill="#33ff00" stroke="black" cx="572" cy="-468.55" rx="210.02" ry="38.37"/>
<text text-anchor="middle" x="572" y="-480.35" font-family="Times,serif" font-size="14.00">arith.addi : (tensor&lt;8xi16&gt;)</text>
<text text-anchor="middle" x="572" y="-449.35" font-family="Times,serif" font-size="14.00">overflowFlags: #arith.overflow&lt;none...</text>
</g>
<!-- v23&#45;&gt;v25 -->
<g id="edge9" class="edge">
<title>v23&#45;&gt;v25</title>
<path fill="none" stroke="black" d="M472.27,-649.26C447.29,-636.08 423.49,-618.06 409,-593.74 387.24,-557.22 421.31,-527.73 463.83,-506.67"/>
<polygon fill="black" stroke="black" points="465.49,-509.76 473.02,-502.31 462.48,-503.44 465.49,-509.76"/>
<text text-anchor="middle" x="414" y="-572.04" font-family="Times,serif" font-size="14.00">0</text>
</g>
<!-- v24&#45;&gt;v25 -->
<g id="edge10" class="edge">
<title>v24&#45;&gt;v25</title>
<path fill="none" stroke="black" d="M599.55,-557.37C596.07,-546.27 591.38,-531.31 586.85,-516.88"/>
<polygon fill="black" stroke="black" points="590.09,-515.52 583.76,-507.03 583.41,-517.62 590.09,-515.52"/>
<text text-anchor="middle" x="598" y="-528.54" font-family="Times,serif" font-size="14.00">1</text>
</g>
<!-- v25&#45;&gt;v26 -->
<g id="edge11" class="edge">
<title>v25&#45;&gt;v26</title>
<path fill="none" stroke="black" d="M578.83,-430.31C581.25,-419.54 584.31,-407.86 588,-397.37 589.02,-394.47 590.22,-391.49 591.49,-388.56"/>
<polygon fill="black" stroke="black" points="594.67,-390.02 595.72,-379.48 588.33,-387.06 594.67,-390.02"/>
<text text-anchor="middle" x="593" y="-401.17" font-family="Times,serif" font-size="14.00">0</text>
</g>
<!-- v27 -->
<g id="node21" class="node">
<title>v27</title>
<ellipse fill="#33ff00" stroke="black" cx="572" cy="-254.18" rx="210.02" ry="38.37"/>
<text text-anchor="middle" x="572" y="-265.98" font-family="Times,serif" font-size="14.00">arith.addi : (tensor&lt;8xi16&gt;)</text>
<text text-anchor="middle" x="572" y="-234.98" font-family="Times,serif" font-size="14.00">overflowFlags: #arith.overflow&lt;none...</text>
</g>
<!-- v25&#45;&gt;v27 -->
<g id="edge13" class="edge">
<title>v25&#45;&gt;v27</title>
<path fill="none" stroke="black" d="M472.27,-434.89C447.29,-421.71 423.49,-403.69 409,-379.37 387.24,-342.85 421.31,-313.36 463.83,-292.3"/>
<polygon fill="black" stroke="black" points="465.49,-295.39 473.02,-287.94 462.48,-289.07 465.49,-295.39"/>
<text text-anchor="middle" x="414" y="-357.67" font-family="Times,serif" font-size="14.00">0</text>
</g>
<!-- v26&#45;&gt;v27 -->
<g id="edge14" class="edge">
<title>v26&#45;&gt;v27</title>
<path fill="none" stroke="black" d="M599.55,-343C596.07,-331.9 591.38,-316.94 586.85,-302.51"/>
<polygon fill="black" stroke="black" points="590.09,-301.15 583.76,-292.66 583.41,-303.25 590.09,-301.15"/>
<text text-anchor="middle" x="598" y="-314.17" font-family="Times,serif" font-size="14.00">1</text>
</g>
<!-- v27&#45;&gt;v28 -->
<g id="edge15" class="edge">
<title>v27&#45;&gt;v28</title>
<path fill="none" stroke="black" d="M553.67,-216.1C546.82,-202.24 539.19,-186.81 532.92,-174.14"/>
<polygon fill="black" stroke="black" points="536.01,-172.48 528.44,-165.07 529.73,-175.58 536.01,-172.48"/>
<text text-anchor="middle" x="549" y="-186.8" font-family="Times,serif" font-size="14.00">0</text>
</g>
<!-- v29 -->
<g id="node23" class="node">
<title>v29</title>
<ellipse fill="#00ffff" stroke="black" cx="520" cy="-74" rx="80.69" ry="18"/>
<text text-anchor="middle" x="520" y="-70.3" font-family="Times,serif" font-size="14.00">secret.yield : ()</text>
</g>
<!-- v28&#45;&gt;v29 -->
<g id="edge17" class="edge">
<title>v28&#45;&gt;v29</title>
<path fill="none" stroke="black" d="M520,-128.81C520,-120.79 520,-111.05 520,-102.07"/>
<polygon fill="black" stroke="black" points="523.5,-102.03 520,-92.03 516.5,-102.03 523.5,-102.03"/>
</g>
</g>
</svg>
