<svg width="211" height="211" viewBox="0 0 211 211" fill="none" xmlns="http://www.w3.org/2000/svg">
<rect width="211" height="211" fill="white" fill-opacity="0.01"/>
<path d="M123.23 66.7551L174.606 100.061L191.923 89.0595L174.683 77.9962L123.23 45.2414L142.039 57.3846L123.23 66.7551Z" fill="#EFCF6F"/>
<path d="M192 45.2414L123.289 0.921875L105.896 11.8606L174.683 56.1804L192 45.2414Z" fill="#EFCF6F"/>
<path d="M54.3358 44.4507L36.9272 33.4495L20.1604 44.8332L37.4086 56.0036L54.3358 44.4507Z" fill="#EE958A"/>
<path d="M71.6719 56.0036L54.3358 66.7551V89.1709L88.6553 67.1815L71.6719 56.0036Z" fill="#EE958A"/>
<path d="M37.4086 56.0036L20.1604 44.8332L20 154.908L37.4086 166.05V56.0036Z" fill="#A32E24"/>
<path d="M192 45.2414L174.683 56.1804V77.9962L192 67.1815V45.2414Z" fill="#D38041"/>
<path d="M142.039 57.3846L123.23 45.2414V66.7551L142.039 57.3846Z" fill="#D38041"/>
<path fill-rule="evenodd" clip-rule="evenodd" d="M54.3358 44.4507V66.7551V89.1709L88.6553 67.1815V23.6533L105.895 11.8604L106.241 78.1254V121.767L88.9925 132.436L88.7349 89.1709L71.5353 100.023L54.3358 110.875V154.908L37.4086 166.05V56.0036L54.3358 44.4507Z" fill="#DD583B"/>
<path d="M88.9925 132.436L88.7349 89.1709L71.5353 100.023L71.2631 121.767L88.9925 132.436Z" fill="#A32E24"/>
<path fill-rule="evenodd" clip-rule="evenodd" d="M88.6553 23.6533V67.1815L71.6719 56.0036L72.0653 11.8604L88.6553 23.6533Z" fill="#A32E24"/>
<path d="M105.895 11.8604L88.6553 0.921875L72.0653 11.8604L88.6553 23.6533L105.895 11.8604Z" fill="#EE958A"/>
<path d="M105.896 11.8606L106.023 36.4084L106.241 78.1254V121.767L123.23 110.875V88.8153V66.7551V45.2414L174.683 77.9962V56.1804L105.896 11.8606Z" fill="#E5AD11"/>
<path d="M123.23 110.875L106.241 121.767L174.606 166.05V143.989L123.23 110.875Z" fill="#E5AD11"/>
<path d="M174.606 100.061L123.23 66.7551V88.8153L141.366 100.447L174.606 121.767V100.061Z" fill="#E5AD11"/>
<path d="M191.923 89.0595L174.606 100.061V121.767L191.923 110.875V89.0595Z" fill="#D48041"/>
<path d="M192 132.436L174.606 143.989V166.05L191.923 154.908L192 132.436Z" fill="#D48041"/>
<path fill-rule="evenodd" clip-rule="evenodd" d="M174.606 143.989L123.23 110.875L141.366 100.447L174.606 121.767L192 132.436L174.606 143.989Z" fill="#EFCF6F"/>
<path d="M123.23 88.8153V110.875L141.366 100.447L123.23 88.8153Z" fill="#D48041"/>
<path d="M132.944 174.843L105.24 157.029L77.5367 139.215L77.2179 157.255L119.012 184.142L132.944 193.051V174.843Z" fill="#395AAD"/>
<path d="M49.4434 157.255V174.843L104.96 210.739V193.051L49.4434 157.255Z" fill="#276E3A"/>
<path d="M63.1649 148.215L49.4434 157.255L104.96 193.051L119.012 184.142L77.2179 157.255L63.1649 148.215Z" fill="#ADD284"/>
<path d="M160.721 174.843V157.255L146.21 150.586L132.987 156.959L147.371 166.054L160.721 174.843Z" fill="#395AAD"/>
<path d="M119.012 129.937L132.987 139.373L119.482 148.42L105.176 139.373L119.012 129.937Z" fill="#395AAD"/>
<path fill-rule="evenodd" clip-rule="evenodd" d="M132.944 121.61L119.483 117.68L105.253 121.61L91.3947 130.412L77.5367 139.215L91.3912 148.124L132.944 174.843L147.371 166.054L132.987 156.959L146.21 150.586L160.721 157.255L174.564 148.492L160.842 139.215L147.371 139.373L146.216 129.985L146.21 129.937L132.944 121.61ZM119.012 129.937L132.987 139.373L119.483 148.42L105.176 139.373L119.012 129.937Z" fill="#9EC4E0"/>
<path d="M174.564 148.492L160.721 157.255V174.843L174.758 166.07L174.564 148.492Z" fill="#4285F4"/>
<path d="M132.944 174.843V193.051L147.371 184.142V166.054L132.944 174.843Z" fill="#4285F4"/>
<path d="M104.96 193.051V210.739L119.012 201.7V184.142L104.96 193.051Z" fill="#4E9C68"/>
</svg>
