<svg width="32" height="32" viewBox="0 0 32 32" fill="none" xmlns="http://www.w3.org/2000/svg">
<rect width="32" height="32" fill="white" fill-opacity="0.01"/>
<path d="M18.6889 10.124L26.4805 15.1751L29.1068 13.5067L26.4922 11.8288L18.6889 6.86126L21.5415 8.70288L18.6889 10.124Z" fill="#EFCF6F"/>
<path d="M29.1185 6.86125L18.6979 0.13981L16.06 1.79876L26.4922 8.52025L29.1185 6.86125Z" fill="#EFCF6F"/>
<path d="M8.2405 6.74134L5.60033 5.07291L3.05751 6.79935L5.67334 8.49344L8.2405 6.74134Z" fill="#EE958A"/>
<path d="M10.8697 8.49344L8.2405 10.124V13.5235L13.4454 10.1887L10.8697 8.49344Z" fill="#EE958A"/>
<path d="M5.67334 8.49344L3.05751 6.79935L3.03318 23.4932L5.67334 25.1829V8.49344Z" fill="#A32E24"/>
<path d="M29.1185 6.86126L26.4922 8.52025V11.8288L29.1185 10.1887V6.86126Z" fill="#D38041"/>
<path d="M21.5415 8.70288L18.6889 6.86126V10.124L21.5415 8.70288Z" fill="#D38041"/>
<path fill-rule="evenodd" clip-rule="evenodd" d="M8.2405 6.74134V10.124V13.5235L13.4454 10.1887V3.58723L16.0599 1.79873L16.1123 11.8484V18.467L13.4965 20.0851L13.4574 13.5235L10.849 15.1694L8.2405 16.8152V23.4932L5.67334 25.1829V8.49344L8.2405 6.74134Z" fill="#DD583B"/>
<path d="M13.4965 20.0851L13.4574 13.5235L10.849 15.1694L10.8077 18.467L13.4965 20.0851Z" fill="#A32E24"/>
<path fill-rule="evenodd" clip-rule="evenodd" d="M13.4454 3.58723V10.1887L10.8697 8.49344L10.9293 1.79873L13.4454 3.58723Z" fill="#A32E24"/>
<path d="M16.0599 1.79873L13.4454 0.13981L10.9293 1.79873L13.4454 3.58723L16.0599 1.79873Z" fill="#EE958A"/>
<path d="M16.06 1.79876L16.0793 5.52165L16.1123 11.8484V18.467L18.6889 16.8152V13.4696V10.124V6.86126L26.4922 11.8288V8.52025L16.06 1.79876Z" fill="#E5AD11"/>
<path d="M18.6889 16.8152L16.1123 18.467L26.4805 25.1829V21.8372L18.6889 16.8152Z" fill="#E5AD11"/>
<path d="M26.4805 15.1751L18.6889 10.124V13.4696L21.4394 15.2337L26.4805 18.467V15.1751Z" fill="#E5AD11"/>
<path d="M29.1068 13.5067L26.4805 15.1751V18.467L29.1068 16.8152V13.5067Z" fill="#D48041"/>
<path d="M29.1185 20.0851L26.4805 21.8372V25.1829L29.1068 23.4932L29.1185 20.0851Z" fill="#D48041"/>
<path fill-rule="evenodd" clip-rule="evenodd" d="M26.4805 21.8372L18.6889 16.8152L21.4394 15.2337L26.4805 18.467L29.1185 20.0851L26.4805 21.8372Z" fill="#EFCF6F"/>
<path d="M18.6889 13.4696V16.8152L21.4394 15.2337L18.6889 13.4696Z" fill="#D48041"/>
<path d="M20.1621 26.5165L15.9606 23.8148L11.7591 21.1132L11.7108 23.8491L18.0492 27.9267L20.1621 29.2779V26.5165Z" fill="#395AAD"/>
<path d="M7.49852 23.8491V26.5165L15.9181 31.9604V29.2779L7.49852 23.8491Z" fill="#276E3A"/>
<path d="M9.57951 22.4781L7.49852 23.8491L15.9181 29.2779L18.0492 27.9267L11.7108 23.8491L9.57951 22.4781Z" fill="#ADD284"/>
<path d="M24.3747 26.5165V23.8491L22.174 22.8377L20.1686 23.8042L22.3501 25.1835L24.3747 26.5165Z" fill="#395AAD"/>
<path d="M18.0492 19.7061L20.1686 21.1371L18.1206 22.5092L15.9508 21.1371L18.0492 19.7061Z" fill="#395AAD"/>
<path fill-rule="evenodd" clip-rule="evenodd" d="M20.1621 18.4432L18.1206 17.8472L15.9625 18.4432L13.8608 19.7781L11.7591 21.1132L13.8603 22.4643L20.1621 26.5165L22.3501 25.1835L20.1686 23.8042L22.174 22.8377L24.3747 23.8491L26.4742 22.5201L24.3931 21.1132L22.3501 21.1371L22.1749 19.7134L22.174 19.7061L20.1621 18.4432ZM18.0492 19.7061L20.1686 21.1371L18.1206 22.5092L15.9508 21.1371L18.0492 19.7061Z" fill="#9EC4E0"/>
<path d="M26.4742 22.5201L24.3747 23.8491V26.5165L26.5036 25.186L26.4742 22.5201Z" fill="#4285F4"/>
<path d="M20.1621 26.5165V29.2779L22.3501 27.9267V25.1835L20.1621 26.5165Z" fill="#4285F4"/>
<path d="M15.9181 29.2779V31.9604L18.0492 30.5896V27.9267L15.9181 29.2779Z" fill="#4E9C68"/>
</svg>
