<svg version="1.1" viewBox="0.0 0.0 555.2414698162729 157.76640419947506" fill="none" stroke="none" stroke-linecap="square" stroke-miterlimit="10" xmlns:xlink="http://www.w3.org/1999/xlink" xmlns="http://www.w3.org/2000/svg"><clipPath id="p.0"><path d="m0 0l555.24146 0l0 157.7664l-555.24146 0l0 -157.7664z" clip-rule="nonzero"/></clipPath><g clip-path="url(#p.0)"><path fill="#000000" fill-opacity="0.0" d="m0 0l555.24146 0l0 157.7664l-555.24146 0z" fill-rule="evenodd"/><path fill="#000000" d="m18.581362 18.971985l0 10.671783l10.3383465 0l0 -10.671783zm115.392746 0l0 10.671783l10.671783 0l0 -10.671783zm-59.03105 0l0 13.674568l13.341133 0l0 -13.674568zm-35.351562 21.343563l0 24.012913l24.012913 0l0 -24.012913zm60.03135 0l0 24.012913l24.012917 0l0 -24.012913zm132.0682 11.0070915c3.6677856 0 6.6705627 1.3337364 8.671173 3.3343468c2.3340454 2.0006065 3.3343506 5.0033913 3.3343506 8.671173c0 4.001217 -1.0003052 7.3374367 -3.3343506 9.671474c-2.0006104 2.0006104 -5.0033875 3.3343506 -8.671173 3.3343506l-25.34665 0l0 -25.011345zm67.70036 17.340477c5.0033875 0 9.004608 1.6690445 12.34082 4.6699524c3.0009155 3.3343506 5.001526 7.6708755 5.334961 13.005829l-35.3497 0c1.6671753 -12.005524 7.3355713 -17.675781 17.67392 -17.675781zm-280.81006 7.003998l0 13.341133l13.339258 0l0 -13.341133zm112.39183 0l0 13.341133l13.672699 0l0 -13.341133zm-67.36879 -11.338654l0 36.01844l36.018436 0l0 -36.01844zm169.08696 23.010742c4.6699524 0 8.337738 1.3356094 11.0052185 3.6696548c2.669342 2.3340378 4.0030823 6.0018234 4.0030823 10.004913c0 4.001213 -1.3337402 7.003998 -3.6696472 9.338043c-2.3340454 2.3340378 -5.668396 3.334343 -9.671478 3.334343l-28.01413 0l0 -26.346954zm198.43483 -18.007347c5.6702576 0 10.004913 2.0006104 13.3411255 6.0018234c3.0009155 4.00309 4.668091 9.671478 4.668091 16.675476c0 7.3374405 -1.6671753 13.005829 -4.668091 17.008919c-3.3362122 4.001213 -7.670868 6.0018234 -13.3411255 6.0018234c-6.001831 0 -10.338348 -2.0006104 -13.672699 -6.0018234c-3.002777 -4.00309 -4.6699524 -9.671478 -4.6699524 -17.008919c0 -7.003998 1.6671753 -12.672386 4.6699524 -16.675476c3.3343506 -4.001213 7.670868 -6.0018234 13.672699 -6.0018234zm-391.5347 31.015045l0 24.344475l24.012913 0l0 -24.344475zm60.03135 0l0 24.344475l24.012917 0l0 -24.344475zm94.38261 -60.031353l0 84.375824l43.355865 0c6.668701 0 12.338959 -2.0006104 16.673615 -6.0018234c4.3365326 -4.00309 6.337143 -9.338043 6.337143 -16.008614c0 -5.3349533 -1.3337402 -9.671478 -4.0012207 -13.672691c-2.6693573 -3.6696548 -6.670578 -6.3371353 -11.34053 -8.004303c3.6696472 -1.6671753 6.3371277 -4.336525 8.337738 -7.3374405c2.3359222 -3.667778 3.3362274 -7.337433 3.3362274 -11.672085c0 -6.6705627 -2.3359222 -11.672085 -6.670578 -15.675175c-4.3365173 -4.001213 -9.671478 -6.0036964 -16.675476 -6.0036964zm145.74092 -6.3352585l0 90.71109l12.672394 0l0 -90.71109zm49.35956 0c-3.3362122 0 -6.3371277 0.6668701 -9.339905 1.6671753c-2.6674805 1.3337364 -5.001526 3.3343468 -6.668701 6.0036964c-1.6671753 2.6674767 -2.669342 6.0018234 -2.669342 10.338348l0 8.004303l-10.004913 0l0 10.338348l10.004913 0l0 54.359215l12.34082 0l0 -54.359215l12.672394 0l0 -10.338348l-12.672394 0l0 -7.3374367c0 -3.336216 0.6668701 -5.3368263 2.3340454 -6.6705627c1.3337402 -1.0003052 3.3343506 -1.6671753 5.6702576 -1.6671753l4.668091 0l0 -10.338348zm112.72339 24.677914c-3.3343506 0 -6.6705627 1.0021744 -10.004913 3.0027847c-3.0009155 2.0006065 -5.6702576 4.668083 -7.670868 8.337738l0 -10.004913l-12.672394 0l0 64.69756l12.672394 0l0 -37.352173c0 -4.668091 1.6671753 -8.335869 5.0033875 -11.338654c3.3343506 -2.6674805 7.670868 -4.334648 12.672394 -4.334648l3.3362122 0l0 -13.007698zm11.338654 -15.673302l0 64.03256c0 6.3352585 1.6690674 10.671783 5.003418 13.672691c3.6677856 2.6674805 7.6708374 4.0012207 12.672363 4.0012207l6.337158 0l0 -11.0052185l-5.001526 0c-2.0025024 0 -3.3362427 -0.33343506 -4.669983 -1.6671753c-1.3337402 -1.0003052 -2.0006104 -3.334343 -2.0006104 -6.6705627l0 -35.01626l11.672119 0l0 -10.338348l-11.672119 0l0 -17.008911zm-213.77655 15.673302c-6.335266 0 -11.672089 1.3356094 -16.34018 4.003086c-4.6699524 2.6674767 -8.004303 6.6705666 -10.673676 11.672085c-2.334015 5.003395 -3.6677551 10.671783 -3.6677551 17.675781c0 7.0040054 1.3337402 13.005829 3.6677551 18.009224c2.6693726 5.0015182 6.337158 9.004608 11.007111 11.672081c4.668091 2.6674805 10.338348 4.00309 16.675476 4.00309c17.00705 0 27.013824 -7.337433 29.681305 -22.012306l-13.3411255 0c-0.6668701 3.6696548 -2.3340454 6.3371353 -5.001526 8.671173c-3.002777 2.0006104 -6.6705627 3.0009155 -11.0052185 3.0009155c-11.67395 0 -18.009216 -6.6686935 -18.676086 -20.009827l49.02426 0l0 -4.001213c0 -6.3371353 -1.3337402 -12.005524 -4.334656 -17.008919c-2.669342 -4.668083 -6.3371277 -8.671173 -11.00708 -11.33865c-4.668091 -3.0009117 -10.004913 -4.336521 -16.008606 -4.336521zm131.73477 -0.33343506c-6.335266 0 -11.672089 1.3356094 -16.675476 4.003086c-4.668091 3.0009117 -8.004303 7.0040016 -10.671783 12.00552c-2.6674805 5.003395 -4.0012207 11.0052185 -4.0012207 17.675781c0 7.0040054 1.3337402 13.005829 4.0012207 18.009224c2.6674805 5.0015182 6.0036926 9.004608 10.671783 12.005516c5.0033875 2.6674805 10.34021 4.336525 16.675476 4.336525c6.0036926 0 11.340515 -1.6690445 16.008606 -4.336525c5.0033875 -3.000908 8.671173 -7.003998 11.0052185 -12.005516c2.669342 -5.003395 4.0030823 -11.0052185 4.0030823 -18.009224c0 -6.6705627 -1.3337402 -12.672386 -4.0030823 -17.675781c-2.3340454 -5.0015182 -6.001831 -9.004608 -11.0052185 -12.00552c-4.668091 -2.6674767 -10.004913 -4.003086 -16.008606 -4.003086zm-412.54483 75.371216l0 10.338348l10.3383465 0l0 -10.338348zm56.361694 -3.0009155l0 13.339264l13.341133 0l0 -13.339264zm59.03105 3.0009155l0 10.338348l10.671783 0l0 -10.338348z" fill-rule="evenodd"/></g></svg>
