<?xml version="1.0" encoding="UTF-8" standalone="no"?>
<!DOCTYPE svg PUBLIC "-//W3C//DTD SVG 1.1//EN"
 "http://www.w3.org/Graphics/SVG/1.1/DTD/svg11.dtd">
<!-- Generated by graphviz version 2.43.0 (0)
 -->
<!-- Title: G Pages: 1 -->
<svg width="561pt" height="827pt"
 viewBox="0.00 0.00 560.50 826.60" xmlns="http://www.w3.org/2000/svg" xmlns:xlink="http://www.w3.org/1999/xlink">
<g id="graph0" class="graph" transform="scale(1 1) rotate(0) translate(4 822.6)">
<title>G</title>
<polygon fill="white" stroke="transparent" points="-4,4 -4,-822.6 556.5,-822.6 556.5,4 -4,4"/>
<g id="clust1" class="cluster">
<title>cluster_inputs</title>
<polygon fill="none" stroke="black" points="86,-735.6 86,-810.6 336,-810.6 336,-735.6 86,-735.6"/>
<text text-anchor="middle" x="211" y="-795.4" font-family="Times,serif" font-size="14.00">Upstream Frontends</text>
</g>
<g id="clust2" class="cluster">
<title>cluster_mlir</title>
<polygon fill="none" stroke="black" points="8,-652.6 8,-727.6 306,-727.6 306,-652.6 8,-652.6"/>
<text text-anchor="middle" x="157" y="-712.4" font-family="Times,serif" font-size="14.00">Upstream MLIR</text>
</g>
<g id="clust5" class="cluster">
<title>cluster_fhe</title>
<polygon fill="none" stroke="black" points="74,-219 74,-397 302,-397 302,-219 74,-219"/>
<text text-anchor="middle" x="188" y="-381.8" font-family="Times,serif" font-size="14.00">Core Dialects</text>
</g>
<g id="clust6" class="cluster">
<title>cluster_fhe_schemes</title>
<polygon fill="none" stroke="black" points="82,-291 82,-366 294,-366 294,-291 82,-291"/>
<text text-anchor="middle" x="188" y="-350.8" font-family="Times,serif" font-size="14.00">FHE Schemes</text>
</g>
<g id="clust7" class="cluster">
<title>cluster_poly</title>
<polygon fill="none" stroke="black" points="175,-136 175,-211 355,-211 355,-136 175,-136"/>
<text text-anchor="middle" x="265" y="-195.8" font-family="Times,serif" font-size="14.00">Polynomial Dialects</text>
</g>
<!-- Python -->
<g id="node1" class="node">
<title>Python</title>
<polygon fill="white" stroke="black" points="327.5,-779.6 260.5,-779.6 260.5,-743.6 327.5,-743.6 327.5,-779.6"/>
<text text-anchor="middle" x="294" y="-757.9" font-family="Times,serif" font-size="14.00">Python</text>
</g>
<!-- Polygeist -->
<g id="node2" class="node">
<title>Polygeist</title>
<polygon fill="white" stroke="black" points="246,-779.6 164,-779.6 164,-743.6 246,-743.6 246,-779.6"/>
<text text-anchor="middle" x="205" y="-757.9" font-family="Times,serif" font-size="14.00">Polygeist</text>
</g>
<!-- Func -->
<g id="node6" class="node">
<title>Func</title>
<polygon fill="#beaed4" stroke="black" points="230,-696.6 176,-696.6 176,-660.6 230,-660.6 230,-696.6"/>
<text text-anchor="middle" x="203" y="-674.9" font-family="Times,serif" font-size="14.00">Func</text>
</g>
<!-- Polygeist&#45;&gt;Func -->
<g id="edge6" class="edge">
<title>Polygeist&#45;&gt;Func</title>
<path fill="none" stroke="black" d="M204.58,-743.42C204.53,-741.63 204.49,-739.75 204.44,-737.8"/>
<polygon fill="black" stroke="black" points="207.93,-737.51 204.19,-727.6 200.93,-737.68 207.93,-737.51"/>
</g>
<!-- TOSA -->
<g id="node3" class="node">
<title>TOSA</title>
<polygon fill="white" stroke="black" points="150,-779.6 94,-779.6 94,-743.6 150,-743.6 150,-779.6"/>
<text text-anchor="middle" x="122" y="-757.9" font-family="Times,serif" font-size="14.00">TOSA</text>
</g>
<!-- Memref -->
<g id="node7" class="node">
<title>Memref</title>
<polygon fill="#beaed4" stroke="black" points="161.5,-696.6 88.5,-696.6 88.5,-660.6 161.5,-660.6 161.5,-696.6"/>
<text text-anchor="middle" x="125" y="-674.9" font-family="Times,serif" font-size="14.00">Memref</text>
</g>
<!-- TOSA&#45;&gt;Memref -->
<g id="edge5" class="edge">
<title>TOSA&#45;&gt;Memref</title>
<path fill="none" stroke="black" d="M122.64,-743.42C122.7,-741.63 122.77,-739.75 122.84,-737.8"/>
<polygon fill="black" stroke="black" points="126.35,-737.72 123.22,-727.6 119.35,-737.46 126.35,-737.72"/>
</g>
<!-- Arith -->
<g id="node4" class="node">
<title>Arith</title>
<polygon fill="#beaed4" stroke="black" points="298,-696.6 244,-696.6 244,-660.6 298,-660.6 298,-696.6"/>
<text text-anchor="middle" x="271" y="-674.9" font-family="Times,serif" font-size="14.00">Arith</text>
</g>
<!-- lower_from_mlir -->
<g id="node8" class="node">
<title>lower_from_mlir</title>
<ellipse fill="black" stroke="black" cx="189" cy="-622.8" rx="1.8" ry="1.8"/>
</g>
<!-- Arith&#45;&gt;lower_from_mlir -->
<g id="edge1" class="edge">
<title>Arith&#45;&gt;lower_from_mlir</title>
<path fill="none" stroke="black" d="M248.16,-660.36C244.47,-657.7 240.66,-655.04 237,-652.6 218.88,-640.54 195.72,-627.53 190.21,-624.47"/>
</g>
<!-- Yosys -->
<g id="node9" class="node">
<title>Yosys</title>
<polygon fill="#ffff99" stroke="black" points="310.29,-487.54 310.29,-502.46 287.28,-513 254.72,-513 231.71,-502.46 231.71,-487.54 254.72,-477 287.28,-477 310.29,-487.54"/>
<text text-anchor="middle" x="271" y="-491.3" font-family="Times,serif" font-size="14.00">Yosys</text>
</g>
<!-- Arith&#45;&gt;Yosys -->
<!-- Affine -->
<g id="node5" class="node">
<title>Affine</title>
<polygon fill="#beaed4" stroke="black" points="74,-696.6 16,-696.6 16,-660.6 74,-660.6 74,-696.6"/>
<text text-anchor="middle" x="45" y="-674.9" font-family="Times,serif" font-size="14.00">Affine</text>
</g>
<!-- Affine&#45;&gt;lower_from_mlir -->
<g id="edge2" class="edge">
<title>Affine&#45;&gt;lower_from_mlir</title>
<path fill="none" stroke="black" d="M67.8,-660.5C72.35,-657.58 77.21,-654.79 82,-652.6 122.59,-634.05 177.49,-625.47 187.43,-624.02"/>
</g>
<!-- Func&#45;&gt;lower_from_mlir -->
<g id="edge3" class="edge">
<title>Func&#45;&gt;lower_from_mlir</title>
<path fill="none" stroke="black" d="M198.57,-660.58C194.98,-646.79 190.35,-628.97 189.24,-624.73"/>
</g>
<!-- Memref&#45;&gt;lower_from_mlir -->
<g id="edge4" class="edge">
<title>Memref&#45;&gt;lower_from_mlir</title>
<path fill="none" stroke="black" d="M145.25,-660.58C161.66,-646.79 182.85,-628.97 187.89,-624.73"/>
</g>
<!-- Secret -->
<g id="node10" class="node">
<title>Secret</title>
<g id="a_node10"><a xlink:href="https://heir.dev/docs/dialects/secret/" xlink:title="Secret">
<polygon fill="white" stroke="black" points="220.5,-585 157.5,-585 157.5,-549 220.5,-549 220.5,-585"/>
<text text-anchor="middle" x="189" y="-563.3" font-family="Times,serif" font-size="14.00">Secret</text>
</a>
</g>
</g>
<!-- lower_from_mlir&#45;&gt;Secret -->
<g id="edge7" class="edge">
<title>lower_from_mlir&#45;&gt;Secret</title>
<path fill="none" stroke="black" d="M189,-620.87C189,-617.64 189,-606.55 189,-595.35"/>
<polygon fill="black" stroke="black" points="192.5,-595.26 189,-585.26 185.5,-595.26 192.5,-595.26"/>
</g>
<!-- Comb -->
<g id="node11" class="node">
<title>Comb</title>
<g id="a_node11"><a xlink:href="https://heir.dev/docs/dialects/comb/" xlink:title="Comb">
<polygon fill="white" stroke="black" points="307,-441 249,-441 249,-405 307,-405 307,-441"/>
<text text-anchor="middle" x="278" y="-419.3" font-family="Times,serif" font-size="14.00">Comb</text>
</a>
</g>
</g>
<!-- Yosys&#45;&gt;Comb -->
<g id="edge9" class="edge">
<title>Yosys&#45;&gt;Comb</title>
<path fill="none" stroke="black" d="M272.73,-476.7C273.5,-468.98 274.43,-459.71 275.29,-451.11"/>
<polygon fill="black" stroke="black" points="278.78,-451.4 276.29,-441.1 271.81,-450.71 278.78,-451.4"/>
</g>
<!-- Secret&#45;&gt;Yosys -->
<g id="edge8" class="edge">
<title>Secret&#45;&gt;Yosys</title>
<path fill="none" stroke="black" d="M209.27,-548.7C219.8,-539.7 232.81,-528.6 244.17,-518.9"/>
<polygon fill="black" stroke="black" points="246.75,-521.3 252.09,-512.14 242.21,-515.98 246.75,-521.3"/>
</g>
<!-- Verilog -->
<g id="node12" class="node">
<title>Verilog</title>
<polygon fill="#7fc97f" stroke="black" points="114.5,-36 53.5,-36 53.5,0 120.5,0 120.5,-30 114.5,-36"/>
<polyline fill="none" stroke="black" points="114.5,-36 114.5,-30 "/>
<polyline fill="none" stroke="black" points="120.5,-30 114.5,-30 "/>
<text text-anchor="middle" x="87" y="-14.3" font-family="Times,serif" font-size="14.00">Verilog</text>
</g>
<!-- Secret&#45;&gt;Verilog -->
<g id="edge10" class="edge">
<title>Secret&#45;&gt;Verilog</title>
<path fill="none" stroke="black" d="M157.35,-550.42C117.45,-528.28 54,-483.7 54,-424 54,-424 54,-424 54,-161 54,-119.97 67.23,-73.97 76.94,-45.74"/>
<polygon fill="black" stroke="black" points="80.28,-46.78 80.32,-36.19 73.68,-44.45 80.28,-46.78"/>
</g>
<!-- BGV -->
<g id="node14" class="node">
<title>BGV</title>
<g id="a_node14"><a xlink:href="https://heir.dev/docs/dialects/bgv/" xlink:title="BGV">
<polygon fill="white" stroke="black" points="216,-335 162,-335 162,-299 216,-299 216,-335"/>
<text text-anchor="middle" x="189" y="-313.3" font-family="Times,serif" font-size="14.00">BGV</text>
</a>
</g>
</g>
<!-- Secret&#45;&gt;BGV -->
<g id="edge11" class="edge">
<title>Secret&#45;&gt;BGV</title>
<path fill="none" stroke="black" d="M189,-548.95C189,-519.97 189,-459.19 189,-407.26"/>
<polygon fill="black" stroke="black" points="192.5,-407 189,-397 185.5,-407 192.5,-407"/>
</g>
<!-- CGGI -->
<g id="node16" class="node">
<title>CGGI</title>
<g id="a_node16"><a xlink:href="https://heir.dev/docs/dialects/cggi/" xlink:title="CGGI">
<polygon fill="white" stroke="black" points="285.5,-335 230.5,-335 230.5,-299 285.5,-299 285.5,-335"/>
<text text-anchor="middle" x="258" y="-313.3" font-family="Times,serif" font-size="14.00">CGGI</text>
</a>
</g>
</g>
<!-- Comb&#45;&gt;CGGI -->
<g id="edge12" class="edge">
<title>Comb&#45;&gt;CGGI:ne</title>
<path fill="none" stroke="black" d="M286.5,-404.81C293.63,-388.03 301.29,-362.43 292,-344.25"/>
<polygon fill="black" stroke="black" points="294.71,-342.03 286,-336 289.05,-346.15 294.71,-342.03"/>
</g>
<!-- LWE -->
<g id="node13" class="node">
<title>LWE</title>
<g id="a_node13"><a xlink:href="https://heir.dev/docs/dialects/lwe/" xlink:title="LWE">
<polygon fill="white" stroke="black" points="237,-263 183,-263 183,-227 237,-227 237,-263"/>
<text text-anchor="middle" x="210" y="-241.3" font-family="Times,serif" font-size="14.00">LWE</text>
</a>
</g>
</g>
<!-- Polynomial -->
<g id="node17" class="node">
<title>Polynomial</title>
<g id="a_node17"><a xlink:href="https://heir.dev/docs/dialects/polynomial/" xlink:title="Polynomial">
<polygon fill="white" stroke="black" points="346.5,-180 251.5,-180 251.5,-144 346.5,-144 346.5,-180"/>
<text text-anchor="middle" x="299" y="-158.3" font-family="Times,serif" font-size="14.00">Polynomial</text>
</a>
</g>
</g>
<!-- LWE&#45;&gt;Polynomial -->
<g id="edge16" class="edge">
<title>LWE&#45;&gt;Polynomial</title>
<path fill="none" stroke="black" d="M228.87,-226.82C231.91,-224.06 235.18,-221.09 238.59,-217.98"/>
<polygon fill="black" stroke="black" points="241.22,-220.32 246.26,-211 236.51,-215.14 241.22,-220.32"/>
</g>
<!-- RNS -->
<g id="node18" class="node">
<title>RNS</title>
<g id="a_node18"><a xlink:href="https://heir.dev/docs/dialects/rns/" xlink:title="RNS">
<polygon fill="white" stroke="black" points="237,-180 183,-180 183,-144 237,-144 237,-180"/>
<text text-anchor="middle" x="210" y="-158.3" font-family="Times,serif" font-size="14.00">RNS</text>
</a>
</g>
</g>
<!-- LWE&#45;&gt;RNS -->
<!-- BGV&#45;&gt;LWE -->
<g id="edge15" class="edge">
<title>BGV&#45;&gt;LWE</title>
<path fill="none" stroke="black" d="M194.19,-298.7C196.53,-290.9 199.35,-281.51 201.95,-272.83"/>
<polygon fill="black" stroke="black" points="205.35,-273.69 204.87,-263.1 198.64,-271.68 205.35,-273.69"/>
</g>
<!-- OpenFHE -->
<g id="node19" class="node">
<title>OpenFHE</title>
<g id="a_node19"><a xlink:href="https://heir.dev/docs/dialects/openfhe/" xlink:title="OpenFHE">
<polygon fill="white" stroke="black" points="162,-108 76,-108 76,-72 162,-72 162,-108"/>
<text text-anchor="middle" x="119" y="-86.3" font-family="Times,serif" font-size="14.00">OpenFHE</text>
</a>
</g>
</g>
<!-- BGV&#45;&gt;OpenFHE -->
<g id="edge13" class="edge">
<title>BGV&#45;&gt;OpenFHE</title>
<path fill="none" stroke="black" d="M180.26,-298.63C175.35,-288.42 169.35,-275.17 165,-263 155.45,-236.29 135.95,-159.48 125.68,-118.13"/>
<polygon fill="black" stroke="black" points="129.02,-117.06 123.22,-108.19 122.22,-118.74 129.02,-117.06"/>
</g>
<!-- CKKS -->
<g id="node15" class="node">
<title>CKKS</title>
<g id="a_node15"><a xlink:href="https://heir.dev/docs/dialects/ckks/" xlink:title="CKKS">
<polygon fill="white" stroke="black" points="148,-335 90,-335 90,-299 148,-299 148,-335"/>
<text text-anchor="middle" x="119" y="-313.3" font-family="Times,serif" font-size="14.00">CKKS</text>
</a>
</g>
</g>
<!-- CKKS&#45;&gt;OpenFHE -->
<g id="edge14" class="edge">
<title>CKKS&#45;&gt;OpenFHE</title>
<path fill="none" stroke="black" d="M119,-298.72C119,-259.77 119,-164.88 119,-118.05"/>
<polygon fill="black" stroke="black" points="122.5,-118.03 119,-108.03 115.5,-118.03 122.5,-118.03"/>
</g>
<!-- lower_from_cggi -->
<g id="node25" class="node">
<title>lower_from_cggi</title>
<ellipse fill="black" stroke="black" cx="376" cy="-162" rx="1.8" ry="1.8"/>
</g>
<!-- CGGI&#45;&gt;lower_from_cggi -->
<g id="edge17" class="edge">
<title>CGGI&#45;&gt;lower_from_cggi</title>
<path fill="none" stroke="black" d="M278.56,-298.97C300.77,-279.64 335.94,-246.19 358,-211 368.59,-194.11 374.43,-170.03 375.72,-164.27"/>
</g>
<!-- Polynomial&#45;&gt;OpenFHE -->
<!-- Standard -->
<g id="node20" class="node">
<title>Standard</title>
<polygon fill="#beaed4" stroke="black" points="259.5,-108 176.5,-108 176.5,-72 259.5,-72 259.5,-108"/>
<text text-anchor="middle" x="218" y="-86.3" font-family="Times,serif" font-size="14.00">Standard</text>
</g>
<!-- Polynomial&#45;&gt;Standard -->
<g id="edge21" class="edge">
<title>Polynomial&#45;&gt;Standard</title>
<path fill="none" stroke="black" d="M278.98,-143.7C268.87,-134.97 256.46,-124.24 245.48,-114.75"/>
<polygon fill="black" stroke="black" points="247.65,-111.99 237.79,-108.1 243.07,-117.29 247.65,-111.99"/>
</g>
<!-- Jaxite -->
<g id="node21" class="node">
<title>Jaxite</title>
<g id="a_node21"><a xlink:href="https://heir.dev/docs/dialects/jaxite/" xlink:title="Jaxite">
<polygon fill="white" stroke="black" points="330.5,-108 273.5,-108 273.5,-72 330.5,-72 330.5,-108"/>
<text text-anchor="middle" x="302" y="-86.3" font-family="Times,serif" font-size="14.00">Jaxite</text>
</a>
</g>
</g>
<!-- Polynomial&#45;&gt;Jaxite -->
<!-- TfheRust -->
<g id="node22" class="node">
<title>TfheRust</title>
<g id="a_node22"><a xlink:href="https://heir.dev/docs/dialects/tfherust/" xlink:title="TfheRust">
<polygon fill="white" stroke="black" points="425.5,-108 344.5,-108 344.5,-72 425.5,-72 425.5,-108"/>
<text text-anchor="middle" x="385" y="-86.3" font-family="Times,serif" font-size="14.00">TfheRust</text>
</a>
</g>
</g>
<!-- Polynomial&#45;&gt;TfheRust -->
<!-- TfheRustBool -->
<g id="node23" class="node">
<title>TfheRustBool</title>
<g id="a_node23"><a xlink:href="https://heir.dev/docs/dialects/tfherustbool/" xlink:title="TfheRustBool">
<polygon fill="white" stroke="black" points="552.5,-108 439.5,-108 439.5,-72 552.5,-72 552.5,-108"/>
<text text-anchor="middle" x="496" y="-86.3" font-family="Times,serif" font-size="14.00">TfheRustBool</text>
</a>
</g>
</g>
<!-- Polynomial&#45;&gt;TfheRustBool -->
<!-- OpenFHE&#45;&gt;Verilog -->
<!-- LLVM -->
<g id="node24" class="node">
<title>LLVM</title>
<polygon fill="gray" stroke="black" points="246.5,-36 189.5,-36 189.5,0 246.5,0 246.5,-36"/>
<text text-anchor="middle" x="218" y="-14.3" font-family="Times,serif" font-size="14.00">LLVM</text>
</g>
<!-- Standard&#45;&gt;LLVM -->
<g id="edge22" class="edge">
<title>Standard&#45;&gt;LLVM</title>
<path fill="none" stroke="black" d="M218,-71.7C218,-63.98 218,-54.71 218,-46.11"/>
<polygon fill="black" stroke="black" points="221.5,-46.1 218,-36.1 214.5,-46.1 221.5,-46.1"/>
</g>
<!-- lower_from_cggi&#45;&gt;Jaxite -->
<g id="edge18" class="edge">
<title>lower_from_cggi&#45;&gt;Jaxite</title>
<path fill="none" stroke="black" d="M375.4,-159.97C373.3,-156.42 365.95,-144.38 358,-136 350.79,-128.4 342.28,-120.94 334.11,-114.35"/>
<polygon fill="black" stroke="black" points="336.13,-111.49 326.1,-108.08 331.81,-117 336.13,-111.49"/>
</g>
<!-- lower_from_cggi&#45;&gt;TfheRust -->
<g id="edge19" class="edge">
<title>lower_from_cggi&#45;&gt;TfheRust</title>
<path fill="none" stroke="black" d="M376.13,-160.01C376.72,-155.41 379.26,-135.64 381.47,-118.44"/>
<polygon fill="black" stroke="black" points="384.98,-118.58 382.79,-108.21 378.04,-117.68 384.98,-118.58"/>
</g>
<!-- lower_from_cggi&#45;&gt;TfheRustBool -->
<g id="edge20" class="edge">
<title>lower_from_cggi&#45;&gt;TfheRustBool</title>
<path fill="none" stroke="black" d="M377.35,-160.21C385.22,-155.62 426.02,-131.82 457.6,-113.4"/>
<polygon fill="black" stroke="black" points="459.77,-116.19 466.64,-108.12 456.24,-110.14 459.77,-116.19"/>
</g>
</g>
</svg>
