<svg width="172" height="211" viewBox="0 0 172 211" fill="none" xmlns="http://www.w3.org/2000/svg">
<path d="M103.23 66.7551L154.606 100.061L171.923 89.0595L154.683 77.9962L103.23 45.2414L122.039 57.3846L103.23 66.7551Z" fill="#EFCF6F"/>
<path d="M172 45.2414L103.289 0.921875L85.8956 11.8606L85.8952 11.8609V11.8604L85.8956 11.8606L154.683 56.1804L172 45.2414Z" fill="#EFCF6F"/>
<path d="M34.3358 44.4507L16.9272 33.4495L0.160448 44.8332L17.4086 56.0036L34.3358 44.4507Z" fill="#EE958A"/>
<path d="M51.6719 56.0036L34.3358 66.7551V89.1709L68.6553 67.1815L51.6719 56.0036Z" fill="#EE958A"/>
<path d="M17.4086 56.0036L0.160448 44.8332L0 154.908L17.4086 166.05V56.0036Z" fill="#A32E24"/>
<path d="M172 45.2414L154.683 56.1804V77.9962L172 67.1815V45.2414Z" fill="#D38041"/>
<path d="M122.039 57.3846L103.23 45.2414V66.7551L122.039 57.3846Z" fill="#D38041"/>
<path fill-rule="evenodd" clip-rule="evenodd" d="M34.3358 44.4507V66.7551V89.1709L68.6553 67.1815V23.6533L85.8952 11.8604L86.2407 78.1254V121.767L68.9925 132.436L68.7349 89.1709L51.5353 100.023L34.3358 110.875V154.908L17.4086 166.05V56.0036L34.3358 44.4507Z" fill="#DD583B"/>
<path d="M68.9925 132.436L68.7349 89.1709L51.5353 100.023L51.2631 121.767L68.9925 132.436Z" fill="#A32E24"/>
<path fill-rule="evenodd" clip-rule="evenodd" d="M68.6553 23.6533V67.1815L51.6719 56.0036L52.0653 11.8604L68.6553 23.6533Z" fill="#A32E24"/>
<path d="M85.8952 11.8604V11.8609L68.6553 0.921875L52.0653 11.8604L68.6553 23.6533L85.8952 11.8604Z" fill="#EE958A"/>
<path d="M85.8956 11.8606L85.8952 11.8609L86.0232 36.4084L86.2407 78.1254V121.767L103.23 110.875V88.8153V66.7551V45.2414L154.683 77.9962V56.1804L85.8956 11.8606Z" fill="#E5AD11"/>
<path d="M103.23 110.875L86.2407 121.767L154.606 166.05V143.989L103.23 110.875Z" fill="#E5AD11"/>
<path d="M154.606 100.061L103.23 66.7551V88.8153L121.366 100.447L154.606 121.767V100.061Z" fill="#E5AD11"/>
<path d="M171.923 89.0595L154.606 100.061V121.767L171.923 110.875V89.0595Z" fill="#D48041"/>
<path d="M172 132.436L154.606 143.989V166.05L171.923 154.908L172 132.436Z" fill="#D48041"/>
<path fill-rule="evenodd" clip-rule="evenodd" d="M154.606 143.989L103.23 110.875L121.366 100.447L154.606 121.767L172 132.436L154.606 143.989Z" fill="#EFCF6F"/>
<path d="M103.23 88.8153V110.875L121.366 100.447L103.23 88.8153Z" fill="#D48041"/>
<path d="M112.944 174.843L85.2403 157.029L57.5367 139.215L57.2179 157.255L99.0122 184.142L112.944 193.051V174.843Z" fill="#395AAD"/>
<path d="M29.4434 157.255V174.843L84.9599 210.739V193.051L29.4434 157.255Z" fill="#276E3A"/>
<path d="M43.1649 148.215L29.4434 157.255L84.9599 193.051L99.0122 184.142L57.2179 157.255L43.1649 148.215Z" fill="#ADD284"/>
<path d="M140.721 174.843V157.255L126.21 150.586L112.987 156.959L127.371 166.054L140.721 174.843Z" fill="#395AAD"/>
<path d="M99.0122 129.937L112.987 139.373L99.4825 148.42L85.1757 139.373L99.0122 129.937Z" fill="#395AAD"/>
<path fill-rule="evenodd" clip-rule="evenodd" d="M112.944 121.61L99.4825 117.68L85.2527 121.61L71.3947 130.412L57.5367 139.215L71.3912 148.124L112.944 174.843L127.371 166.054L112.987 156.959L126.21 150.586L140.721 157.255L154.564 148.492L140.842 139.215L127.371 139.373L126.216 129.985L126.21 129.937L112.944 121.61ZM99.0122 129.937L112.987 139.373L99.4825 148.42L85.1757 139.373L99.0122 129.937Z" fill="#9EC4E0"/>
<path d="M154.564 148.492L140.721 157.255V174.843L154.758 166.07L154.564 148.492Z" fill="#4285F4"/>
<path d="M112.944 174.843V193.051L127.371 184.142V166.054L112.944 174.843Z" fill="#4285F4"/>
<path d="M84.9599 193.051V210.739L99.0122 201.7V184.142L84.9599 193.051Z" fill="#4E9C68"/>
</svg>
